<mxfile host="app.diagrams.net" agent="Mozilla/5.0 (Windows NT 10.0; Win64; x64) AppleWebKit/537.36 (KHTML, like Gecko) Chrome/127.0.0.0 Safari/537.36" version="24.7.6" pages="4">
  <diagram id="zNMGI6wU0Mi8Qe2H5Q59" name="C4 Context">
    <mxGraphModel dx="2074" dy="1098" grid="1" gridSize="10" guides="1" tooltips="1" connect="1" arrows="1" fold="1" page="1" pageScale="1" pageWidth="827" pageHeight="1169" math="0" shadow="0">
      <root>
        <mxCell id="0" />
        <mxCell id="1" parent="0" />
        <mxCell id="jk53wvajYcKSA50TNXrv-9" style="edgeStyle=orthogonalEdgeStyle;rounded=0;orthogonalLoop=1;jettySize=auto;html=1;dashed=1;strokeWidth=2;fillColor=#f5f5f5;strokeColor=#666666;" parent="1" target="lnmgxQ-TkLNhtuKLghFE-11" edge="1">
          <mxGeometry relative="1" as="geometry">
            <mxPoint x="338" y="295" as="sourcePoint" />
            <mxPoint x="273" y="295" as="targetPoint" />
          </mxGeometry>
        </mxCell>
        <mxCell id="jk53wvajYcKSA50TNXrv-20" style="edgeStyle=none;rounded=0;orthogonalLoop=1;jettySize=auto;html=1;dashed=1;strokeColor=#666666;strokeWidth=2;fillColor=#f5f5f5;" parent="1" source="lnmgxQ-TkLNhtuKLghFE-13" target="lnmgxQ-TkLNhtuKLghFE-14" edge="1">
          <mxGeometry relative="1" as="geometry">
            <mxPoint x="563" y="295" as="targetPoint" />
            <mxPoint x="498" y="295" as="sourcePoint" />
          </mxGeometry>
        </mxCell>
        <mxCell id="lnmgxQ-TkLNhtuKLghFE-10" style="edgeStyle=none;rounded=0;orthogonalLoop=1;jettySize=auto;html=1;dashed=1;strokeColor=#707070;strokeWidth=2;fontColor=#707070;" parent="1" source="lnmgxQ-TkLNhtuKLghFE-11" target="lnmgxQ-TkLNhtuKLghFE-3" edge="1">
          <mxGeometry relative="1" as="geometry">
            <mxPoint x="258.7027027027027" y="240" as="sourcePoint" />
          </mxGeometry>
        </mxCell>
        <mxCell id="GE-451ExGiaeum3p-hQv-1" value="&lt;b&gt;Status Dashboard&lt;br&gt;(Context)&lt;/b&gt;" style="text;html=1;align=left;verticalAlign=middle;resizable=0;points=[];autosize=1;fontColor=#666666;" parent="1" vertex="1">
          <mxGeometry x="113" y="390" width="120" height="30" as="geometry" />
        </mxCell>
        <mxCell id="lnmgxQ-TkLNhtuKLghFE-9" style="edgeStyle=none;rounded=0;orthogonalLoop=1;jettySize=auto;html=1;dashed=1;strokeColor=#707070;strokeWidth=2;fontColor=#707070;" parent="1" source="lnmgxQ-TkLNhtuKLghFE-3" target="lnmgxQ-TkLNhtuKLghFE-13" edge="1">
          <mxGeometry relative="1" as="geometry">
            <mxPoint x="416.81081081081084" y="240" as="targetPoint" />
          </mxGeometry>
        </mxCell>
        <object placeholders="1" c4Name="Support Staff" c4Type="Person" c4Description="Monitors the production line" label="&lt;b&gt;%c4Name%&lt;/b&gt;&lt;div&gt;[%c4Type%]&lt;/div&gt;&lt;br&gt;&lt;div&gt;%c4Description%&lt;/div&gt;" id="lnmgxQ-TkLNhtuKLghFE-3">
          <mxCell style="html=1;dashed=0;whitespace=wrap;fillColor=#08427b;strokeColor=none;fontColor=#ffffff;shape=mxgraph.c4.person;align=center;metaEdit=1;points=[[0.5,0,0],[1,0.5,0],[1,0.75,0],[0.75,1,0],[0.5,1,0],[0.25,1,0],[0,0.75,0],[0,0.5,0]];metaData={&quot;c4Type&quot;:{&quot;editable&quot;:false}};" parent="1" vertex="1">
            <mxGeometry x="359" y="40" width="110.00000000000001" height="140" as="geometry" />
          </mxCell>
        </object>
        <object placeholders="1" c4Name="Alert System" c4Type="Software System" c4Description="Sends SMS notifications of problems" label="&lt;b&gt;%c4Name%&lt;/b&gt;&lt;div&gt;[%c4Type%]&lt;/div&gt;&lt;br&gt;&lt;div&gt;%c4Description%&lt;/div&gt;" id="lnmgxQ-TkLNhtuKLghFE-11">
          <mxCell style="rounded=1;whiteSpace=wrap;html=1;labelBackgroundColor=none;fillColor=#999999;fontColor=#ffffff;align=center;arcSize=10;strokeColor=#8A8A8A;metaEdit=1;metaData={&quot;c4Type&quot;:{&quot;editable&quot;:false}};points=[[0.25,0,0],[0.5,0,0],[0.75,0,0],[1,0.25,0],[1,0.5,0],[1,0.75,0],[0.75,1,0],[0.5,1,0],[0.25,1,0],[0,0.75,0],[0,0.5,0],[0,0.25,0]];" parent="1" vertex="1">
            <mxGeometry x="113" y="240" width="160" height="110.00000000000001" as="geometry" />
          </mxCell>
        </object>
        <object placeholders="1" c4Name="Status Dashboard" c4Type="Software System" c4Description="Sensor and machine information indicating production line status" label="&lt;b&gt;%c4Name%&lt;/b&gt;&lt;div&gt;[%c4Type%]&lt;/div&gt;&lt;br&gt;&lt;div&gt;%c4Description%&lt;/div&gt;" link="data:page/id,7UhaJ9ljh7ebol46HkWr" id="lnmgxQ-TkLNhtuKLghFE-13">
          <mxCell style="rounded=1;whiteSpace=wrap;html=1;labelBackgroundColor=none;fillColor=#1168BD;fontColor=#ffffff;align=center;arcSize=10;strokeColor=#1168BD;metaEdit=1;metaData={&quot;c4Type&quot;:{&quot;editable&quot;:false}};points=[[0.25,0,0],[0.5,0,0],[0.75,0,0],[1,0.25,0],[1,0.5,0],[1,0.75,0],[0.75,1,0],[0.5,1,0],[0.25,1,0],[0,0.75,0],[0,0.5,0],[0,0.25,0]];" parent="1" vertex="1">
            <mxGeometry x="334" y="240" width="160" height="110.00000000000001" as="geometry" />
          </mxCell>
        </object>
        <object placeholders="1" c4Name="Data Collection System" c4Type="Software System" c4Description="Monitors and collects data from sensors and PLCs" label="&lt;b&gt;%c4Name%&lt;/b&gt;&lt;div&gt;[%c4Type%]&lt;/div&gt;&lt;br&gt;&lt;div&gt;%c4Description%&lt;/div&gt;" id="lnmgxQ-TkLNhtuKLghFE-14">
          <mxCell style="rounded=1;whiteSpace=wrap;html=1;labelBackgroundColor=none;fillColor=#999999;fontColor=#ffffff;align=center;arcSize=10;strokeColor=#8A8A8A;metaEdit=1;metaData={&quot;c4Type&quot;:{&quot;editable&quot;:false}};points=[[0.25,0,0],[0.5,0,0],[0.75,0,0],[1,0.25,0],[1,0.5,0],[1,0.75,0],[0.75,1,0],[0.5,1,0],[0.25,1,0],[0,0.75,0],[0,0.5,0],[0,0.25,0]];" parent="1" vertex="1">
            <mxGeometry x="560" y="240" width="160" height="110.00000000000001" as="geometry" />
          </mxCell>
        </object>
        <mxCell id="GGAcaCNyiWMHBxoHMokF-1" value="" style="group" parent="1" vertex="1" connectable="0">
          <mxGeometry x="66" y="440" width="696" height="220" as="geometry" />
        </mxCell>
        <mxCell id="GGAcaCNyiWMHBxoHMokF-2" value="" style="rounded=1;whiteSpace=wrap;html=1;fillColor=none;strokeColor=#666666;dashed=1;dashPattern=1 2;fontColor=#666666;" parent="GGAcaCNyiWMHBxoHMokF-1" vertex="1">
          <mxGeometry width="696" height="220" as="geometry" />
        </mxCell>
        <mxCell id="GGAcaCNyiWMHBxoHMokF-3" value="Legend" style="text;html=1;strokeColor=none;fillColor=none;align=center;verticalAlign=middle;whiteSpace=wrap;rounded=0;fontStyle=1;fontColor=#666666;" parent="GGAcaCNyiWMHBxoHMokF-1" vertex="1">
          <mxGeometry x="19" y="10" width="40" height="20" as="geometry" />
        </mxCell>
        <object placeholders="1" c4Name="name" c4Type="Person" c4Description="Description" label="&lt;b style=&quot;font-size: 9px;&quot;&gt;%c4Name%&lt;/b&gt;&lt;div style=&quot;font-size: 9px;&quot;&gt;[%c4Type%]&lt;/div&gt;&lt;br style=&quot;font-size: 9px;&quot;&gt;&lt;div style=&quot;font-size: 9px;&quot;&gt;%c4Description%&lt;/div&gt;" id="GGAcaCNyiWMHBxoHMokF-4">
          <mxCell style="html=1;dashed=0;whitespace=wrap;fillColor=#08427b;strokeColor=none;fontColor=#ffffff;shape=mxgraph.c4.person;align=center;metaEdit=1;points=[[0.5,0,0],[1,0.5,0],[1,0.75,0],[0.75,1,0],[0.5,1,0],[0.25,1,0],[0,0.75,0],[0,0.5,0]];metaData={&quot;c4Type&quot;:{&quot;editable&quot;:false}};fontSize=9;" parent="GGAcaCNyiWMHBxoHMokF-1" vertex="1">
            <mxGeometry x="19" y="35" width="60" height="80" as="geometry" />
          </mxCell>
        </object>
        <object placeholders="1" c4Name="name" c4Type="Software System" c4Description="Description" label="&lt;b style=&quot;font-size: 9px;&quot;&gt;%c4Name%&lt;/b&gt;&lt;div style=&quot;font-size: 9px;&quot;&gt;[%c4Type%]&lt;/div&gt;&lt;br style=&quot;font-size: 9px;&quot;&gt;&lt;div style=&quot;font-size: 9px;&quot;&gt;%c4Description%&lt;/div&gt;" id="GGAcaCNyiWMHBxoHMokF-5">
          <mxCell style="rounded=1;whiteSpace=wrap;html=1;labelBackgroundColor=none;fillColor=#1168BD;fontColor=#ffffff;align=center;arcSize=10;strokeColor=#1168BD;metaEdit=1;metaData={&quot;c4Type&quot;:{&quot;editable&quot;:false}};points=[[0.25,0,0],[0.5,0,0],[0.75,0,0],[1,0.25,0],[1,0.5,0],[1,0.75,0],[0.75,1,0],[0.5,1,0],[0.25,1,0],[0,0.75,0],[0,0.5,0],[0,0.25,0]];fontSize=9;" parent="GGAcaCNyiWMHBxoHMokF-1" vertex="1">
            <mxGeometry x="98" y="42.5" width="90" height="65" as="geometry" />
          </mxCell>
        </object>
        <object placeholders="1" c4Name="name" c4Type="Software System" c4Description="Description" label="&lt;b style=&quot;font-size: 9px;&quot;&gt;%c4Name%&lt;/b&gt;&lt;div style=&quot;font-size: 9px;&quot;&gt;[%c4Type%]&lt;/div&gt;&lt;br style=&quot;font-size: 9px;&quot;&gt;&lt;div style=&quot;font-size: 9px;&quot;&gt;%c4Description%&lt;/div&gt;" id="GGAcaCNyiWMHBxoHMokF-6">
          <mxCell style="rounded=1;whiteSpace=wrap;html=1;labelBackgroundColor=none;fillColor=#999999;fontColor=#ffffff;align=center;arcSize=10;strokeColor=#8A8A8A;metaEdit=1;metaData={&quot;c4Type&quot;:{&quot;editable&quot;:false}};points=[[0.25,0,0],[0.5,0,0],[0.75,0,0],[1,0.25,0],[1,0.5,0],[1,0.75,0],[0.75,1,0],[0.5,1,0],[0.25,1,0],[0,0.75,0],[0,0.5,0],[0,0.25,0]];fontSize=9;" parent="GGAcaCNyiWMHBxoHMokF-1" vertex="1">
            <mxGeometry x="203.5" y="42.5" width="90" height="65" as="geometry" />
          </mxCell>
        </object>
        <object placeholders="1" c4Name="name" c4Type="Component" c4Technology="technology" c4Description="Description" label="&lt;b style=&quot;font-size: 9px;&quot;&gt;%c4Name%&lt;/b&gt;&lt;div style=&quot;font-size: 9px;&quot;&gt;[%c4Type%: %c4Technology%]&lt;/div&gt;&lt;br style=&quot;font-size: 9px;&quot;&gt;&lt;div style=&quot;font-size: 9px;&quot;&gt;%c4Description%&lt;/div&gt;" id="GGAcaCNyiWMHBxoHMokF-7">
          <mxCell style="rounded=1;whiteSpace=wrap;html=1;labelBackgroundColor=none;fillColor=#85BBF0;fontColor=#ffffff;align=center;arcSize=10;strokeColor=#78A8D8;metaEdit=1;metaData={&quot;c4Type&quot;:{&quot;editable&quot;:false}};points=[[0.25,0,0],[0.5,0,0],[0.75,0,0],[1,0.25,0],[1,0.5,0],[1,0.75,0],[0.75,1,0],[0.5,1,0],[0.25,1,0],[0,0.75,0],[0,0.5,0],[0,0.25,0]];fontSize=9;" parent="GGAcaCNyiWMHBxoHMokF-1" vertex="1">
            <mxGeometry x="426" y="42.5" width="90" height="65" as="geometry" />
          </mxCell>
        </object>
        <object placeholders="1" c4Name="name" c4Type="Container" c4Technology="technology" c4Description="Description" label="&lt;b style=&quot;font-size: 9px;&quot;&gt;%c4Name%&lt;/b&gt;&lt;div style=&quot;font-size: 9px;&quot;&gt;[%c4Type%: %c4Technology%]&lt;/div&gt;&lt;br style=&quot;font-size: 9px;&quot;&gt;&lt;div style=&quot;font-size: 9px;&quot;&gt;%c4Description%&lt;/div&gt;" id="GGAcaCNyiWMHBxoHMokF-8">
          <mxCell style="rounded=1;whiteSpace=wrap;html=1;labelBackgroundColor=none;fillColor=#438DD5;fontColor=#ffffff;align=center;arcSize=10;strokeColor=#3C7FC0;metaEdit=1;metaData={&quot;c4Type&quot;:{&quot;editable&quot;:false}};points=[[0.25,0,0],[0.5,0,0],[0.75,0,0],[1,0.25,0],[1,0.5,0],[1,0.75,0],[0.75,1,0],[0.5,1,0],[0.25,1,0],[0,0.75,0],[0,0.5,0],[0,0.25,0]];fontSize=9;" parent="GGAcaCNyiWMHBxoHMokF-1" vertex="1">
            <mxGeometry x="314.5" y="42.5" width="90" height="65" as="geometry" />
          </mxCell>
        </object>
        <object placeholders="1" c4Name="name" c4Type="ExecutionEnvironment" c4Application="applicationAndVersion" label="&lt;div style=&quot;text-align: left; font-size: 9px;&quot;&gt;%c4Name%&lt;/div&gt;&lt;div style=&quot;text-align: left; font-size: 9px;&quot;&gt;[%c4Application%]&lt;/div&gt;" id="GGAcaCNyiWMHBxoHMokF-9">
          <mxCell style="rounded=1;whiteSpace=wrap;html=1;labelBackgroundColor=none;fillColor=#ffffff;fontColor=#000000;align=left;arcSize=5;strokeColor=#000000;verticalAlign=bottom;metaEdit=1;metaData={&quot;c4Type&quot;:{&quot;editable&quot;:false}};points=[[0.25,0,0],[0.5,0,0],[0.75,0,0],[1,0.25,0],[1,0.5,0],[1,0.75,0],[0.75,1,0],[0.5,1,0],[0.25,1,0],[0,0.75,0],[0,0.5,0],[0,0.25,0]];fontSize=9;" parent="GGAcaCNyiWMHBxoHMokF-1" vertex="1">
            <mxGeometry x="59" y="130" width="141" height="60" as="geometry" />
          </mxCell>
        </object>
        <object placeholders="1" c4Name="hostname" c4Type="DeploymentNode" c4OperationSystem="operationSystem" c4ScalingFactor="" label="&lt;div style=&quot;text-align: left; font-size: 9px;&quot;&gt;%c4Name%&lt;/div&gt;&lt;div style=&quot;text-align: left; font-size: 9px;&quot;&gt;[%c4OperationSystem%]&lt;/div&gt;&lt;div style=&quot;text-align: right; font-size: 9px;&quot;&gt;%c4ScalingFactor%&lt;/div&gt;" id="GGAcaCNyiWMHBxoHMokF-10">
          <mxCell style="rounded=1;whiteSpace=wrap;html=1;labelBackgroundColor=none;fillColor=#ffffff;fontColor=#000000;align=left;arcSize=5;strokeColor=#000000;verticalAlign=bottom;metaEdit=1;metaData={&quot;c4Type&quot;:{&quot;editable&quot;:false}};points=[[0.25,0,0],[0.5,0,0],[0.75,0,0],[1,0.25,0],[1,0.5,0],[1,0.75,0],[0.75,1,0],[0.5,1,0],[0.25,1,0],[0,0.75,0],[0,0.5,0],[0,0.25,0]];fontSize=9;" parent="GGAcaCNyiWMHBxoHMokF-1" vertex="1">
            <mxGeometry x="220" y="130" width="140" height="60" as="geometry" />
          </mxCell>
        </object>
        <object placeholders="1" c4Type="Database" c4Technology="Technology" c4Description="Description" label="%c4Type%&lt;div style=&quot;font-size: 9px;&quot;&gt;[Container:&amp;nbsp;%c4Technology%]&lt;/div&gt;&lt;br style=&quot;font-size: 9px;&quot;&gt;&lt;div style=&quot;font-size: 9px;&quot;&gt;%c4Description%&lt;/div&gt;" id="GGAcaCNyiWMHBxoHMokF-11">
          <mxCell style="shape=cylinder;whiteSpace=wrap;html=1;boundedLbl=1;rounded=0;labelBackgroundColor=none;fillColor=#438DD5;fontSize=9;fontColor=#ffffff;align=center;strokeColor=#3C7FC0;metaEdit=1;points=[[0.5,0,0],[1,0.25,0],[1,0.5,0],[1,0.75,0],[0.5,1,0],[0,0.75,0],[0,0.5,0],[0,0.25,0]];metaData={&quot;c4Type&quot;:{&quot;editable&quot;:false}};" parent="GGAcaCNyiWMHBxoHMokF-1" vertex="1">
            <mxGeometry x="380" y="130" width="90" height="70" as="geometry" />
          </mxCell>
        </object>
        <object placeholders="1" c4Type="Database" c4Technology="Technology" c4Description="External" label="%c4Type%&lt;div style=&quot;font-size: 9px;&quot;&gt;[Container:&amp;nbsp;%c4Technology%]&lt;/div&gt;&lt;br style=&quot;font-size: 9px;&quot;&gt;&lt;div style=&quot;font-size: 9px;&quot;&gt;%c4Description%&lt;/div&gt;" id="GGAcaCNyiWMHBxoHMokF-12">
          <mxCell style="shape=cylinder;whiteSpace=wrap;html=1;boundedLbl=1;rounded=1;labelBackgroundColor=none;fillColor=#999999;fontSize=10;fontColor=#ffffff;align=center;strokeColor=#8A8A8A;metaEdit=1;points=[[0.5,0,0],[1,0.25,0],[1,0.5,0],[1,0.75,0],[0.5,1,0],[0,0.75,0],[0,0.5,0],[0,0.25,0]];metaData={&quot;c4Type&quot;:{&quot;editable&quot;:false}};arcSize=10;" parent="GGAcaCNyiWMHBxoHMokF-1" vertex="1">
            <mxGeometry x="480" y="130" width="90" height="70" as="geometry" />
          </mxCell>
        </object>
        <object placeholders="1" c4Type="Relationship" c4Technology="technology" c4Description="Relationship" label="&lt;div style=&quot;text-align: left; font-size: 9px;&quot;&gt;&lt;div style=&quot;text-align: center; font-size: 9px;&quot;&gt;&lt;b style=&quot;font-size: 9px;&quot;&gt;%c4Description%&lt;/b&gt;&lt;/div&gt;&lt;div style=&quot;text-align: center; font-size: 9px;&quot;&gt;[%c4Technology%]&lt;/div&gt;&lt;/div&gt;" id="GGAcaCNyiWMHBxoHMokF-13">
          <mxCell style="edgeStyle=none;rounded=0;html=1;jettySize=auto;orthogonalLoop=1;strokeColor=#707070;strokeWidth=2;fontColor=#707070;jumpStyle=none;dashed=1;metaEdit=1;metaData={&quot;c4Type&quot;:{&quot;editable&quot;:false}};fontSize=9;" parent="GGAcaCNyiWMHBxoHMokF-1" edge="1">
            <mxGeometry width="160" relative="1" as="geometry">
              <mxPoint x="536" y="74.5" as="sourcePoint" />
              <mxPoint x="676" y="74.5" as="targetPoint" />
            </mxGeometry>
          </mxCell>
        </object>
      </root>
    </mxGraphModel>
  </diagram>
  <diagram id="7UhaJ9ljh7ebol46HkWr" name="C4 Container">
    <mxGraphModel dx="1131" dy="761" grid="1" gridSize="10" guides="1" tooltips="1" connect="1" arrows="1" fold="1" page="1" pageScale="1" pageWidth="827" pageHeight="1169" math="0" shadow="0">
      <root>
        <mxCell id="6M9tTkYtrs8H_QPtwX7E-0" />
        <mxCell id="6M9tTkYtrs8H_QPtwX7E-1" parent="6M9tTkYtrs8H_QPtwX7E-0" />
        <object placeholders="1" c4Name="Status Dashboard" c4Type="ExecutionEnvironment" c4Application="Container" label="&lt;div style=&quot;text-align: left&quot;&gt;%c4Name%&lt;/div&gt;&lt;div style=&quot;text-align: left&quot;&gt;[%c4Application%]&lt;/div&gt;" id="lYJF4gXNzrw0ycB4rWT1-4">
          <mxCell style="rounded=1;whiteSpace=wrap;html=1;labelBackgroundColor=none;fillColor=#ffffff;fontColor=#000000;align=left;arcSize=5;strokeColor=#000000;verticalAlign=bottom;metaEdit=1;metaData={&quot;c4Type&quot;:{&quot;editable&quot;:false}};points=[[0.25,0,0],[0.5,0,0],[0.75,0,0],[1,0.25,0],[1,0.5,0],[1,0.75,0],[0.75,1,0],[0.5,1,0],[0.25,1,0],[0,0.75,0],[0,0.5,0],[0,0.25,0]];" vertex="1" parent="6M9tTkYtrs8H_QPtwX7E-1">
            <mxGeometry x="206" y="200" width="514" height="370" as="geometry" />
          </mxCell>
        </object>
        <mxCell id="Lo3G5a3L0KlLAlPScO4L-4" style="edgeStyle=none;rounded=0;orthogonalLoop=1;jettySize=auto;html=1;dashed=1;strokeColor=#666666;strokeWidth=2;fillColor=#f5f5f5;" parent="6M9tTkYtrs8H_QPtwX7E-1" source="lYJF4gXNzrw0ycB4rWT1-5" target="lYJF4gXNzrw0ycB4rWT1-2" edge="1">
          <mxGeometry relative="1" as="geometry">
            <mxPoint x="504" y="473.5157699443414" as="sourcePoint" />
            <mxPoint x="400" y="475" as="targetPoint" />
          </mxGeometry>
        </mxCell>
        <mxCell id="pFiWOoE0-NWYzhs1r_mV-0" value="Sends data to&lt;br&gt;(JSON)" style="edgeLabel;html=1;align=center;verticalAlign=middle;resizable=0;points=[];" parent="Lo3G5a3L0KlLAlPScO4L-4" vertex="1" connectable="0">
          <mxGeometry x="0.0238" y="-1" relative="1" as="geometry">
            <mxPoint as="offset" />
          </mxGeometry>
        </mxCell>
        <object placeholders="1" c4Name="Support Staff" c4Type="Person" c4Description="Monitors the production line" label="&lt;b&gt;%c4Name%&lt;/b&gt;&lt;div&gt;[%c4Type%]&lt;/div&gt;&lt;br&gt;&lt;div&gt;%c4Description%&lt;/div&gt;" id="xR-taD2YaKqdD4t_8OCm-0">
          <mxCell style="html=1;dashed=0;whitespace=wrap;fillColor=#08427b;strokeColor=none;fontColor=#ffffff;shape=mxgraph.c4.person;align=center;metaEdit=1;points=[[0.5,0,0],[1,0.5,0],[1,0.75,0],[0.75,1,0],[0.5,1,0],[0.25,1,0],[0,0.75,0],[0,0.5,0]];metaData={&quot;c4Type&quot;:{&quot;editable&quot;:false}};" vertex="1" parent="6M9tTkYtrs8H_QPtwX7E-1">
            <mxGeometry x="530" y="40" width="110.00000000000001" height="140" as="geometry" />
          </mxCell>
        </object>
        <object placeholders="1" c4Type="Relationship" c4Technology="SMS" c4Description="Sends notifications to" label="&lt;div style=&quot;text-align: left&quot;&gt;&lt;div style=&quot;text-align: center&quot;&gt;&lt;b&gt;%c4Description%&lt;/b&gt;&lt;/div&gt;&lt;div style=&quot;text-align: center&quot;&gt;[%c4Technology%]&lt;/div&gt;&lt;/div&gt;" id="xR-taD2YaKqdD4t_8OCm-1">
          <mxCell style="edgeStyle=none;rounded=0;html=1;jettySize=auto;orthogonalLoop=1;strokeColor=#707070;strokeWidth=2;fontColor=#707070;jumpStyle=none;dashed=1;metaEdit=1;metaData={&quot;c4Type&quot;:{&quot;editable&quot;:false}};" edge="1" parent="6M9tTkYtrs8H_QPtwX7E-1" source="BWggMhDQrADv35toyhTK-0" target="xR-taD2YaKqdD4t_8OCm-0">
            <mxGeometry width="160" relative="1" as="geometry">
              <mxPoint x="100" y="230" as="sourcePoint" />
              <mxPoint x="650" y="300" as="targetPoint" />
              <Array as="points">
                <mxPoint x="100" y="110" />
              </Array>
            </mxGeometry>
          </mxCell>
        </object>
        <object placeholders="1" c4Name="Alert System" c4Type="Software System" c4Description="Sends SMS notifications of problems" label="&lt;b&gt;%c4Name%&lt;/b&gt;&lt;div&gt;[%c4Type%]&lt;/div&gt;&lt;br&gt;&lt;div&gt;%c4Description%&lt;/div&gt;" id="BWggMhDQrADv35toyhTK-0">
          <mxCell style="rounded=1;whiteSpace=wrap;html=1;labelBackgroundColor=none;fillColor=#999999;fontColor=#ffffff;align=center;arcSize=10;strokeColor=#8A8A8A;metaEdit=1;metaData={&quot;c4Type&quot;:{&quot;editable&quot;:false}};points=[[0.25,0,0],[0.5,0,0],[0.75,0,0],[1,0.25,0],[1,0.5,0],[1,0.75,0],[0.75,1,0],[0.5,1,0],[0.25,1,0],[0,0.75,0],[0,0.5,0],[0,0.25,0]];" vertex="1" parent="6M9tTkYtrs8H_QPtwX7E-1">
            <mxGeometry x="20" y="230" width="160" height="110.00000000000001" as="geometry" />
          </mxCell>
        </object>
        <object placeholders="1" c4Type="Relationship" c4Technology="REST API" c4Description="Makes API calls to" label="&lt;div style=&quot;text-align: left&quot;&gt;&lt;div style=&quot;text-align: center&quot;&gt;&lt;b&gt;%c4Description%&lt;/b&gt;&lt;/div&gt;&lt;div style=&quot;text-align: center&quot;&gt;[%c4Technology%]&lt;/div&gt;&lt;/div&gt;" id="BWggMhDQrADv35toyhTK-1">
          <mxCell style="edgeStyle=none;rounded=0;html=1;jettySize=auto;orthogonalLoop=1;strokeColor=#707070;strokeWidth=2;fontColor=#707070;jumpStyle=none;dashed=1;metaEdit=1;metaData={&quot;c4Type&quot;:{&quot;editable&quot;:false}};" edge="1" parent="6M9tTkYtrs8H_QPtwX7E-1" source="lYJF4gXNzrw0ycB4rWT1-0" target="BWggMhDQrADv35toyhTK-0">
            <mxGeometry x="-0.0494" width="160" relative="1" as="geometry">
              <mxPoint x="504" y="285" as="sourcePoint" />
              <mxPoint x="650" y="300" as="targetPoint" />
              <mxPoint as="offset" />
            </mxGeometry>
          </mxCell>
        </object>
        <object placeholders="1" c4Name="Data Collection System" c4Type="Software System" c4Description="Monitors and collects data from sensors and PLCs" label="&lt;b&gt;%c4Name%&lt;/b&gt;&lt;div&gt;[%c4Type%]&lt;/div&gt;&lt;br&gt;&lt;div&gt;%c4Description%&lt;/div&gt;" id="AtdmSoMEF_yhiQ30HpCC-0">
          <mxCell style="rounded=1;whiteSpace=wrap;html=1;labelBackgroundColor=none;fillColor=#999999;fontColor=#ffffff;align=center;arcSize=10;strokeColor=#8A8A8A;metaEdit=1;metaData={&quot;c4Type&quot;:{&quot;editable&quot;:false}};points=[[0.25,0,0],[0.5,0,0],[0.75,0,0],[1,0.25,0],[1,0.5,0],[1,0.75,0],[0.75,1,0],[0.5,1,0],[0.25,1,0],[0,0.75,0],[0,0.5,0],[0,0.25,0]];" vertex="1" parent="6M9tTkYtrs8H_QPtwX7E-1">
            <mxGeometry x="810" y="230" width="160" height="110.00000000000001" as="geometry" />
          </mxCell>
        </object>
        <object placeholders="1" c4Type="Relationship" c4Technology="REST API" c4Description="Makes API calls to" label="&lt;div style=&quot;text-align: left&quot;&gt;&lt;div style=&quot;text-align: center&quot;&gt;&lt;b&gt;%c4Description%&lt;/b&gt;&lt;/div&gt;&lt;div style=&quot;text-align: center&quot;&gt;[%c4Technology%]&lt;/div&gt;&lt;/div&gt;" id="AtdmSoMEF_yhiQ30HpCC-3">
          <mxCell style="edgeStyle=none;rounded=0;html=1;jettySize=auto;orthogonalLoop=1;strokeColor=#707070;strokeWidth=2;fontColor=#707070;jumpStyle=none;dashed=1;metaEdit=1;metaData={&quot;c4Type&quot;:{&quot;editable&quot;:false}};" edge="1" parent="6M9tTkYtrs8H_QPtwX7E-1" source="lYJF4gXNzrw0ycB4rWT1-5" target="AtdmSoMEF_yhiQ30HpCC-4">
            <mxGeometry x="-0.0494" width="160" relative="1" as="geometry">
              <mxPoint x="664" y="473.6928104575163" as="sourcePoint" />
              <mxPoint x="850" y="570" as="targetPoint" />
              <mxPoint as="offset" />
            </mxGeometry>
          </mxCell>
        </object>
        <object placeholders="1" c4Type="Database" c4Technology="Time Series Database (Influx)" c4Description="" label="%c4Type%&lt;div style=&quot;font-size: 12px;&quot;&gt;[Container:&amp;nbsp;%c4Technology%]&lt;/div&gt;&lt;br style=&quot;font-size: 12px;&quot;&gt;&lt;div style=&quot;font-size: 12px;&quot;&gt;%c4Description%&lt;/div&gt;" id="AtdmSoMEF_yhiQ30HpCC-4">
          <mxCell style="shape=cylinder;whiteSpace=wrap;html=1;boundedLbl=1;rounded=1;labelBackgroundColor=none;fillColor=#999999;fontSize=12;fontColor=#ffffff;align=center;strokeColor=#8A8A8A;metaEdit=1;points=[[0.5,0,0],[1,0.25,0],[1,0.5,0],[1,0.75,0],[0.5,1,0],[0,0.75,0],[0,0.5,0],[0,0.25,0]];metaData={&quot;c4Type&quot;:{&quot;editable&quot;:false}};arcSize=10;" vertex="1" parent="6M9tTkYtrs8H_QPtwX7E-1">
            <mxGeometry x="810" y="400" width="160" height="140" as="geometry" />
          </mxCell>
        </object>
        <object placeholders="1" c4Type="Relationship" c4Technology="Influx REST&#xa;" c4Description="Writes to" label="&lt;div style=&quot;text-align: left&quot;&gt;&lt;div style=&quot;text-align: center&quot;&gt;&lt;b&gt;%c4Description%&lt;/b&gt;&lt;/div&gt;&lt;div style=&quot;text-align: center&quot;&gt;[%c4Technology%]&lt;/div&gt;&lt;/div&gt;" id="AtdmSoMEF_yhiQ30HpCC-6">
          <mxCell style="edgeStyle=none;rounded=0;html=1;jettySize=auto;orthogonalLoop=1;strokeColor=#707070;strokeWidth=2;fontColor=#707070;jumpStyle=none;dashed=1;metaEdit=1;metaData={&quot;c4Type&quot;:{&quot;editable&quot;:false}};" edge="1" parent="6M9tTkYtrs8H_QPtwX7E-1" source="AtdmSoMEF_yhiQ30HpCC-0" target="AtdmSoMEF_yhiQ30HpCC-4">
            <mxGeometry width="160" relative="1" as="geometry">
              <mxPoint x="490" y="450" as="sourcePoint" />
              <mxPoint x="650" y="450" as="targetPoint" />
            </mxGeometry>
          </mxCell>
        </object>
        <object placeholders="1" c4Name="Web Application" c4Type="Container" c4Technology="HTML5/JavaScript" c4Description="Status Dashboard" label="&lt;b&gt;%c4Name%&lt;/b&gt;&lt;div&gt;[%c4Type%: %c4Technology%]&lt;/div&gt;&lt;br&gt;&lt;div&gt;%c4Description%&lt;/div&gt;" link="data:page/id,2XVK7RYDKxdhMDquu4st" id="lYJF4gXNzrw0ycB4rWT1-0">
          <mxCell style="rounded=1;whiteSpace=wrap;html=1;labelBackgroundColor=none;fillColor=#438DD5;fontColor=#ffffff;align=center;arcSize=10;strokeColor=#3C7FC0;metaEdit=1;metaData={&quot;c4Type&quot;:{&quot;editable&quot;:false}};points=[[0.25,0,0],[0.5,0,0],[0.75,0,0],[1,0.25,0],[1,0.5,0],[1,0.75,0],[0.75,1,0],[0.5,1,0],[0.25,1,0],[0,0.75,0],[0,0.5,0],[0,0.25,0]];" vertex="1" parent="6M9tTkYtrs8H_QPtwX7E-1">
            <mxGeometry x="504" y="230" width="160" height="110.00000000000001" as="geometry" />
          </mxCell>
        </object>
        <object placeholders="1" c4Type="Relationship" c4Technology="JSON" c4Description="Makes requests to" label="&lt;div style=&quot;text-align: left&quot;&gt;&lt;div style=&quot;text-align: center&quot;&gt;&lt;b&gt;%c4Description%&lt;/b&gt;&lt;/div&gt;&lt;div style=&quot;text-align: center&quot;&gt;[%c4Technology%]&lt;/div&gt;&lt;/div&gt;" id="lYJF4gXNzrw0ycB4rWT1-1">
          <mxCell style="edgeStyle=none;rounded=0;html=1;jettySize=auto;orthogonalLoop=1;strokeColor=#707070;strokeWidth=2;fontColor=#707070;jumpStyle=none;dashed=1;metaEdit=1;metaData={&quot;c4Type&quot;:{&quot;editable&quot;:false}};" edge="1" parent="6M9tTkYtrs8H_QPtwX7E-1" source="lYJF4gXNzrw0ycB4rWT1-0" target="lYJF4gXNzrw0ycB4rWT1-5">
            <mxGeometry width="160" relative="1" as="geometry">
              <mxPoint x="490" y="450" as="sourcePoint" />
              <mxPoint x="584" y="420" as="targetPoint" />
            </mxGeometry>
          </mxCell>
        </object>
        <object placeholders="1" c4Name="Visualisation Dashboard" c4Type="Container" c4Technology="Graphics libaries" c4Description="" label="&lt;b&gt;%c4Name%&lt;/b&gt;&lt;div&gt;[%c4Type%: %c4Technology%]&lt;/div&gt;&lt;br&gt;&lt;div&gt;%c4Description%&lt;/div&gt;" id="lYJF4gXNzrw0ycB4rWT1-2">
          <mxCell style="rounded=1;whiteSpace=wrap;html=1;labelBackgroundColor=none;fillColor=#438DD5;fontColor=#ffffff;align=center;arcSize=10;strokeColor=#3C7FC0;metaEdit=1;metaData={&quot;c4Type&quot;:{&quot;editable&quot;:false}};points=[[0.25,0,0],[0.5,0,0],[0.75,0,0],[1,0.25,0],[1,0.5,0],[1,0.75,0],[0.75,1,0],[0.5,1,0],[0.25,1,0],[0,0.75,0],[0,0.5,0],[0,0.25,0]];" vertex="1" parent="6M9tTkYtrs8H_QPtwX7E-1">
            <mxGeometry x="234.5" y="415" width="160" height="110.00000000000001" as="geometry" />
          </mxCell>
        </object>
        <object placeholders="1" c4Type="Relationship" c4Technology="HTML" c4Description="Sends data to" label="&lt;div style=&quot;text-align: left&quot;&gt;&lt;div style=&quot;text-align: center&quot;&gt;&lt;b&gt;%c4Description%&lt;/b&gt;&lt;/div&gt;&lt;div style=&quot;text-align: center&quot;&gt;[%c4Technology%]&lt;/div&gt;&lt;/div&gt;" id="lYJF4gXNzrw0ycB4rWT1-3">
          <mxCell style="edgeStyle=none;rounded=0;html=1;jettySize=auto;orthogonalLoop=1;strokeColor=#707070;strokeWidth=2;fontColor=#707070;jumpStyle=none;dashed=1;metaEdit=1;metaData={&quot;c4Type&quot;:{&quot;editable&quot;:false}};" edge="1" parent="6M9tTkYtrs8H_QPtwX7E-1" source="lYJF4gXNzrw0ycB4rWT1-2" target="lYJF4gXNzrw0ycB4rWT1-0">
            <mxGeometry width="160" relative="1" as="geometry">
              <mxPoint x="490" y="450" as="sourcePoint" />
              <mxPoint x="650" y="450" as="targetPoint" />
            </mxGeometry>
          </mxCell>
        </object>
        <object placeholders="1" c4Name="API Service" c4Type="Container" c4Technology="Java/Python" c4Description="" label="&lt;b&gt;%c4Name%&lt;/b&gt;&lt;div&gt;[%c4Type%: %c4Technology%]&lt;/div&gt;&lt;br&gt;&lt;div&gt;%c4Description%&lt;/div&gt;" id="lYJF4gXNzrw0ycB4rWT1-5">
          <mxCell style="rounded=1;whiteSpace=wrap;html=1;labelBackgroundColor=none;fillColor=#438DD5;fontColor=#ffffff;align=center;arcSize=10;strokeColor=#3C7FC0;metaEdit=1;metaData={&quot;c4Type&quot;:{&quot;editable&quot;:false}};points=[[0.25,0,0],[0.5,0,0],[0.75,0,0],[1,0.25,0],[1,0.5,0],[1,0.75,0],[0.75,1,0],[0.5,1,0],[0.25,1,0],[0,0.75,0],[0,0.5,0],[0,0.25,0]];" vertex="1" parent="6M9tTkYtrs8H_QPtwX7E-1">
            <mxGeometry x="504" y="420" width="160" height="110.00000000000001" as="geometry" />
          </mxCell>
        </object>
        <mxCell id="fvyqv4AmcOP5PmUK73PX-0" value="" style="group" vertex="1" connectable="0" parent="6M9tTkYtrs8H_QPtwX7E-1">
          <mxGeometry x="66" y="610" width="696" height="220" as="geometry" />
        </mxCell>
        <mxCell id="fvyqv4AmcOP5PmUK73PX-1" value="" style="rounded=1;whiteSpace=wrap;html=1;fillColor=none;strokeColor=#666666;dashed=1;dashPattern=1 2;fontColor=#666666;" vertex="1" parent="fvyqv4AmcOP5PmUK73PX-0">
          <mxGeometry width="696" height="220" as="geometry" />
        </mxCell>
        <mxCell id="fvyqv4AmcOP5PmUK73PX-2" value="Legend" style="text;html=1;strokeColor=none;fillColor=none;align=center;verticalAlign=middle;whiteSpace=wrap;rounded=0;fontStyle=1;fontColor=#666666;" vertex="1" parent="fvyqv4AmcOP5PmUK73PX-0">
          <mxGeometry x="19" y="10" width="40" height="20" as="geometry" />
        </mxCell>
        <object placeholders="1" c4Name="name" c4Type="Person" c4Description="Description" label="&lt;b style=&quot;font-size: 9px;&quot;&gt;%c4Name%&lt;/b&gt;&lt;div style=&quot;font-size: 9px;&quot;&gt;[%c4Type%]&lt;/div&gt;&lt;br style=&quot;font-size: 9px;&quot;&gt;&lt;div style=&quot;font-size: 9px;&quot;&gt;%c4Description%&lt;/div&gt;" id="fvyqv4AmcOP5PmUK73PX-3">
          <mxCell style="html=1;dashed=0;whitespace=wrap;fillColor=#08427b;strokeColor=none;fontColor=#ffffff;shape=mxgraph.c4.person;align=center;metaEdit=1;points=[[0.5,0,0],[1,0.5,0],[1,0.75,0],[0.75,1,0],[0.5,1,0],[0.25,1,0],[0,0.75,0],[0,0.5,0]];metaData={&quot;c4Type&quot;:{&quot;editable&quot;:false}};fontSize=9;" vertex="1" parent="fvyqv4AmcOP5PmUK73PX-0">
            <mxGeometry x="19" y="35" width="60" height="80" as="geometry" />
          </mxCell>
        </object>
        <object placeholders="1" c4Name="name" c4Type="Software System" c4Description="Description" label="&lt;b style=&quot;font-size: 9px;&quot;&gt;%c4Name%&lt;/b&gt;&lt;div style=&quot;font-size: 9px;&quot;&gt;[%c4Type%]&lt;/div&gt;&lt;br style=&quot;font-size: 9px;&quot;&gt;&lt;div style=&quot;font-size: 9px;&quot;&gt;%c4Description%&lt;/div&gt;" id="fvyqv4AmcOP5PmUK73PX-4">
          <mxCell style="rounded=1;whiteSpace=wrap;html=1;labelBackgroundColor=none;fillColor=#1168BD;fontColor=#ffffff;align=center;arcSize=10;strokeColor=#1168BD;metaEdit=1;metaData={&quot;c4Type&quot;:{&quot;editable&quot;:false}};points=[[0.25,0,0],[0.5,0,0],[0.75,0,0],[1,0.25,0],[1,0.5,0],[1,0.75,0],[0.75,1,0],[0.5,1,0],[0.25,1,0],[0,0.75,0],[0,0.5,0],[0,0.25,0]];fontSize=9;" vertex="1" parent="fvyqv4AmcOP5PmUK73PX-0">
            <mxGeometry x="98" y="42.5" width="90" height="65" as="geometry" />
          </mxCell>
        </object>
        <object placeholders="1" c4Name="name" c4Type="Software System" c4Description="Description" label="&lt;b style=&quot;font-size: 9px;&quot;&gt;%c4Name%&lt;/b&gt;&lt;div style=&quot;font-size: 9px;&quot;&gt;[%c4Type%]&lt;/div&gt;&lt;br style=&quot;font-size: 9px;&quot;&gt;&lt;div style=&quot;font-size: 9px;&quot;&gt;%c4Description%&lt;/div&gt;" id="fvyqv4AmcOP5PmUK73PX-5">
          <mxCell style="rounded=1;whiteSpace=wrap;html=1;labelBackgroundColor=none;fillColor=#999999;fontColor=#ffffff;align=center;arcSize=10;strokeColor=#8A8A8A;metaEdit=1;metaData={&quot;c4Type&quot;:{&quot;editable&quot;:false}};points=[[0.25,0,0],[0.5,0,0],[0.75,0,0],[1,0.25,0],[1,0.5,0],[1,0.75,0],[0.75,1,0],[0.5,1,0],[0.25,1,0],[0,0.75,0],[0,0.5,0],[0,0.25,0]];fontSize=9;" vertex="1" parent="fvyqv4AmcOP5PmUK73PX-0">
            <mxGeometry x="203.5" y="42.5" width="90" height="65" as="geometry" />
          </mxCell>
        </object>
        <object placeholders="1" c4Name="name" c4Type="Component" c4Technology="technology" c4Description="Description" label="&lt;b style=&quot;font-size: 9px;&quot;&gt;%c4Name%&lt;/b&gt;&lt;div style=&quot;font-size: 9px;&quot;&gt;[%c4Type%: %c4Technology%]&lt;/div&gt;&lt;br style=&quot;font-size: 9px;&quot;&gt;&lt;div style=&quot;font-size: 9px;&quot;&gt;%c4Description%&lt;/div&gt;" id="fvyqv4AmcOP5PmUK73PX-6">
          <mxCell style="rounded=1;whiteSpace=wrap;html=1;labelBackgroundColor=none;fillColor=#85BBF0;fontColor=#ffffff;align=center;arcSize=10;strokeColor=#78A8D8;metaEdit=1;metaData={&quot;c4Type&quot;:{&quot;editable&quot;:false}};points=[[0.25,0,0],[0.5,0,0],[0.75,0,0],[1,0.25,0],[1,0.5,0],[1,0.75,0],[0.75,1,0],[0.5,1,0],[0.25,1,0],[0,0.75,0],[0,0.5,0],[0,0.25,0]];fontSize=9;" vertex="1" parent="fvyqv4AmcOP5PmUK73PX-0">
            <mxGeometry x="426" y="42.5" width="90" height="65" as="geometry" />
          </mxCell>
        </object>
        <object placeholders="1" c4Name="name" c4Type="Container" c4Technology="technology" c4Description="Description" label="&lt;b style=&quot;font-size: 9px;&quot;&gt;%c4Name%&lt;/b&gt;&lt;div style=&quot;font-size: 9px;&quot;&gt;[%c4Type%: %c4Technology%]&lt;/div&gt;&lt;br style=&quot;font-size: 9px;&quot;&gt;&lt;div style=&quot;font-size: 9px;&quot;&gt;%c4Description%&lt;/div&gt;" id="fvyqv4AmcOP5PmUK73PX-7">
          <mxCell style="rounded=1;whiteSpace=wrap;html=1;labelBackgroundColor=none;fillColor=#438DD5;fontColor=#ffffff;align=center;arcSize=10;strokeColor=#3C7FC0;metaEdit=1;metaData={&quot;c4Type&quot;:{&quot;editable&quot;:false}};points=[[0.25,0,0],[0.5,0,0],[0.75,0,0],[1,0.25,0],[1,0.5,0],[1,0.75,0],[0.75,1,0],[0.5,1,0],[0.25,1,0],[0,0.75,0],[0,0.5,0],[0,0.25,0]];fontSize=9;" vertex="1" parent="fvyqv4AmcOP5PmUK73PX-0">
            <mxGeometry x="314.5" y="42.5" width="90" height="65" as="geometry" />
          </mxCell>
        </object>
        <object placeholders="1" c4Name="name" c4Type="ExecutionEnvironment" c4Application="applicationAndVersion" label="&lt;div style=&quot;text-align: left; font-size: 9px;&quot;&gt;%c4Name%&lt;/div&gt;&lt;div style=&quot;text-align: left; font-size: 9px;&quot;&gt;[%c4Application%]&lt;/div&gt;" id="fvyqv4AmcOP5PmUK73PX-8">
          <mxCell style="rounded=1;whiteSpace=wrap;html=1;labelBackgroundColor=none;fillColor=#ffffff;fontColor=#000000;align=left;arcSize=5;strokeColor=#000000;verticalAlign=bottom;metaEdit=1;metaData={&quot;c4Type&quot;:{&quot;editable&quot;:false}};points=[[0.25,0,0],[0.5,0,0],[0.75,0,0],[1,0.25,0],[1,0.5,0],[1,0.75,0],[0.75,1,0],[0.5,1,0],[0.25,1,0],[0,0.75,0],[0,0.5,0],[0,0.25,0]];fontSize=9;" vertex="1" parent="fvyqv4AmcOP5PmUK73PX-0">
            <mxGeometry x="59" y="130" width="141" height="60" as="geometry" />
          </mxCell>
        </object>
        <object placeholders="1" c4Name="hostname" c4Type="DeploymentNode" c4OperationSystem="operationSystem" c4ScalingFactor="" label="&lt;div style=&quot;text-align: left; font-size: 9px;&quot;&gt;%c4Name%&lt;/div&gt;&lt;div style=&quot;text-align: left; font-size: 9px;&quot;&gt;[%c4OperationSystem%]&lt;/div&gt;&lt;div style=&quot;text-align: right; font-size: 9px;&quot;&gt;%c4ScalingFactor%&lt;/div&gt;" id="fvyqv4AmcOP5PmUK73PX-9">
          <mxCell style="rounded=1;whiteSpace=wrap;html=1;labelBackgroundColor=none;fillColor=#ffffff;fontColor=#000000;align=left;arcSize=5;strokeColor=#000000;verticalAlign=bottom;metaEdit=1;metaData={&quot;c4Type&quot;:{&quot;editable&quot;:false}};points=[[0.25,0,0],[0.5,0,0],[0.75,0,0],[1,0.25,0],[1,0.5,0],[1,0.75,0],[0.75,1,0],[0.5,1,0],[0.25,1,0],[0,0.75,0],[0,0.5,0],[0,0.25,0]];fontSize=9;" vertex="1" parent="fvyqv4AmcOP5PmUK73PX-0">
            <mxGeometry x="220" y="130" width="140" height="60" as="geometry" />
          </mxCell>
        </object>
        <object placeholders="1" c4Type="Database" c4Technology="Technology" c4Description="Description" label="%c4Type%&lt;div style=&quot;font-size: 9px;&quot;&gt;[Container:&amp;nbsp;%c4Technology%]&lt;/div&gt;&lt;br style=&quot;font-size: 9px;&quot;&gt;&lt;div style=&quot;font-size: 9px;&quot;&gt;%c4Description%&lt;/div&gt;" id="fvyqv4AmcOP5PmUK73PX-10">
          <mxCell style="shape=cylinder;whiteSpace=wrap;html=1;boundedLbl=1;rounded=0;labelBackgroundColor=none;fillColor=#438DD5;fontSize=9;fontColor=#ffffff;align=center;strokeColor=#3C7FC0;metaEdit=1;points=[[0.5,0,0],[1,0.25,0],[1,0.5,0],[1,0.75,0],[0.5,1,0],[0,0.75,0],[0,0.5,0],[0,0.25,0]];metaData={&quot;c4Type&quot;:{&quot;editable&quot;:false}};" vertex="1" parent="fvyqv4AmcOP5PmUK73PX-0">
            <mxGeometry x="380" y="130" width="90" height="70" as="geometry" />
          </mxCell>
        </object>
        <object placeholders="1" c4Type="Database" c4Technology="Technology" c4Description="External" label="%c4Type%&lt;div style=&quot;font-size: 9px;&quot;&gt;[Container:&amp;nbsp;%c4Technology%]&lt;/div&gt;&lt;br style=&quot;font-size: 9px;&quot;&gt;&lt;div style=&quot;font-size: 9px;&quot;&gt;%c4Description%&lt;/div&gt;" id="fvyqv4AmcOP5PmUK73PX-11">
          <mxCell style="shape=cylinder;whiteSpace=wrap;html=1;boundedLbl=1;rounded=1;labelBackgroundColor=none;fillColor=#999999;fontSize=9;fontColor=#ffffff;align=center;strokeColor=#8A8A8A;metaEdit=1;points=[[0.5,0,0],[1,0.25,0],[1,0.5,0],[1,0.75,0],[0.5,1,0],[0,0.75,0],[0,0.5,0],[0,0.25,0]];metaData={&quot;c4Type&quot;:{&quot;editable&quot;:false}};arcSize=10;" vertex="1" parent="fvyqv4AmcOP5PmUK73PX-0">
            <mxGeometry x="480" y="130" width="90" height="70" as="geometry" />
          </mxCell>
        </object>
        <object placeholders="1" c4Type="Relationship" c4Technology="technology" c4Description="Relationship" label="&lt;div style=&quot;text-align: left; font-size: 9px;&quot;&gt;&lt;div style=&quot;text-align: center; font-size: 9px;&quot;&gt;&lt;b style=&quot;font-size: 9px;&quot;&gt;%c4Description%&lt;/b&gt;&lt;/div&gt;&lt;div style=&quot;text-align: center; font-size: 9px;&quot;&gt;[%c4Technology%]&lt;/div&gt;&lt;/div&gt;" id="fvyqv4AmcOP5PmUK73PX-12">
          <mxCell style="edgeStyle=none;rounded=0;html=1;jettySize=auto;orthogonalLoop=1;strokeColor=#707070;strokeWidth=2;fontColor=#707070;jumpStyle=none;dashed=1;metaEdit=1;metaData={&quot;c4Type&quot;:{&quot;editable&quot;:false}};fontSize=9;" edge="1" parent="fvyqv4AmcOP5PmUK73PX-0">
            <mxGeometry width="160" relative="1" as="geometry">
              <mxPoint x="536" y="74.5" as="sourcePoint" />
              <mxPoint x="676" y="74.5" as="targetPoint" />
            </mxGeometry>
          </mxCell>
        </object>
      </root>
    </mxGraphModel>
  </diagram>
  <diagram id="2XVK7RYDKxdhMDquu4st" name="C4 Component">
    <mxGraphModel dx="1131" dy="761" grid="1" gridSize="10" guides="1" tooltips="1" connect="1" arrows="1" fold="1" page="1" pageScale="1" pageWidth="827" pageHeight="1169" math="0" shadow="0">
      <root>
        <mxCell id="AVTp8zRlv71y_wTY7c-L-0" />
        <mxCell id="AVTp8zRlv71y_wTY7c-L-1" parent="AVTp8zRlv71y_wTY7c-L-0" />
        <mxCell id="ES5Gq84RkO1n-74JwgUG-0" value="&lt;div style=&quot;text-align: left&quot;&gt;&lt;b&gt;Web Application&lt;/b&gt;&lt;/div&gt;&lt;div style=&quot;text-align: left&quot;&gt;&lt;b&gt;[Component]&lt;/b&gt;&lt;/div&gt;" style="rounded=1;whiteSpace=wrap;html=1;labelBackgroundColor=none;fillColor=#ffffff;align=left;arcSize=1;verticalAlign=bottom;points=[[0.25,0,0],[0.5,0,0],[0.75,0,0],[1,0.25,0],[1,0.5,0],[1,0.75,0],[0.75,1,0],[0.5,1,0],[0.25,1,0],[0,0.75,0],[0,0.5,0],[0,0.25,0]];strokeColor=#666666;fontColor=#666666;" parent="AVTp8zRlv71y_wTY7c-L-1" vertex="1">
          <mxGeometry x="34" y="190" width="740" height="550" as="geometry" />
        </mxCell>
        <mxCell id="ES5Gq84RkO1n-74JwgUG-1" style="edgeStyle=orthogonalEdgeStyle;rounded=0;orthogonalLoop=1;jettySize=auto;html=1;dashed=1;strokeColor=#666666;strokeWidth=2;fillColor=#f5f5f5;" parent="AVTp8zRlv71y_wTY7c-L-1" source="CS91i22oex75OEXL2tdX-0" target="5MoVeIhPErhMrRM2h9Du-1" edge="1">
          <mxGeometry relative="1" as="geometry">
            <mxPoint x="523" y="180" as="sourcePoint" />
            <mxPoint x="523" y="210" as="targetPoint" />
          </mxGeometry>
        </mxCell>
        <object placeholders="1" c4Name="Support Staff" c4Type="Person" c4Description="Monitors the production line" label="&lt;b&gt;%c4Name%&lt;/b&gt;&lt;div&gt;[%c4Type%]&lt;/div&gt;&lt;br&gt;&lt;div&gt;%c4Description%&lt;/div&gt;" id="CS91i22oex75OEXL2tdX-0">
          <mxCell style="html=1;dashed=0;whitespace=wrap;fillColor=#08427b;strokeColor=none;fontColor=#ffffff;shape=mxgraph.c4.person;align=center;metaEdit=1;points=[[0.5,0,0],[1,0.5,0],[1,0.75,0],[0.75,1,0],[0.5,1,0],[0.25,1,0],[0,0.75,0],[0,0.5,0]];metaData={&quot;c4Type&quot;:{&quot;editable&quot;:false}};" vertex="1" parent="AVTp8zRlv71y_wTY7c-L-1">
            <mxGeometry x="468" y="20" width="110.00000000000001" height="140" as="geometry" />
          </mxCell>
        </object>
        <mxCell id="rxWJiRZVJ9xuswOSfKd9-0" value="" style="group" vertex="1" connectable="0" parent="AVTp8zRlv71y_wTY7c-L-1">
          <mxGeometry x="66" y="940" width="696" height="220" as="geometry" />
        </mxCell>
        <mxCell id="k0BlTFk7QvSlu4OEXwG6-1" value="" style="rounded=1;whiteSpace=wrap;html=1;fillColor=none;strokeColor=#666666;dashed=1;dashPattern=1 2;fontColor=#666666;" vertex="1" parent="rxWJiRZVJ9xuswOSfKd9-0">
          <mxGeometry width="696" height="220" as="geometry" />
        </mxCell>
        <mxCell id="k0BlTFk7QvSlu4OEXwG6-2" value="Legend" style="text;html=1;strokeColor=none;fillColor=none;align=center;verticalAlign=middle;whiteSpace=wrap;rounded=0;fontStyle=1;fontColor=#666666;" vertex="1" parent="rxWJiRZVJ9xuswOSfKd9-0">
          <mxGeometry x="19" y="10" width="40" height="20" as="geometry" />
        </mxCell>
        <object placeholders="1" c4Name="name" c4Type="Person" c4Description="Description" label="&lt;b style=&quot;font-size: 9px;&quot;&gt;%c4Name%&lt;/b&gt;&lt;div style=&quot;font-size: 9px;&quot;&gt;[%c4Type%]&lt;/div&gt;&lt;br style=&quot;font-size: 9px;&quot;&gt;&lt;div style=&quot;font-size: 9px;&quot;&gt;%c4Description%&lt;/div&gt;" id="k0BlTFk7QvSlu4OEXwG6-3">
          <mxCell style="html=1;dashed=0;whitespace=wrap;fillColor=#08427b;strokeColor=none;fontColor=#ffffff;shape=mxgraph.c4.person;align=center;metaEdit=1;points=[[0.5,0,0],[1,0.5,0],[1,0.75,0],[0.75,1,0],[0.5,1,0],[0.25,1,0],[0,0.75,0],[0,0.5,0]];metaData={&quot;c4Type&quot;:{&quot;editable&quot;:false}};fontSize=9;" vertex="1" parent="rxWJiRZVJ9xuswOSfKd9-0">
            <mxGeometry x="19" y="35" width="60" height="80" as="geometry" />
          </mxCell>
        </object>
        <object placeholders="1" c4Name="name" c4Type="Software System" c4Description="Description" label="&lt;b style=&quot;font-size: 9px;&quot;&gt;%c4Name%&lt;/b&gt;&lt;div style=&quot;font-size: 9px;&quot;&gt;[%c4Type%]&lt;/div&gt;&lt;br style=&quot;font-size: 9px;&quot;&gt;&lt;div style=&quot;font-size: 9px;&quot;&gt;%c4Description%&lt;/div&gt;" id="k0BlTFk7QvSlu4OEXwG6-4">
          <mxCell style="rounded=1;whiteSpace=wrap;html=1;labelBackgroundColor=none;fillColor=#1168BD;fontColor=#ffffff;align=center;arcSize=10;strokeColor=#1168BD;metaEdit=1;metaData={&quot;c4Type&quot;:{&quot;editable&quot;:false}};points=[[0.25,0,0],[0.5,0,0],[0.75,0,0],[1,0.25,0],[1,0.5,0],[1,0.75,0],[0.75,1,0],[0.5,1,0],[0.25,1,0],[0,0.75,0],[0,0.5,0],[0,0.25,0]];fontSize=9;" vertex="1" parent="rxWJiRZVJ9xuswOSfKd9-0">
            <mxGeometry x="98" y="42.5" width="90" height="65" as="geometry" />
          </mxCell>
        </object>
        <object placeholders="1" c4Name="name" c4Type="Software System" c4Description="Description" label="&lt;b style=&quot;font-size: 9px;&quot;&gt;%c4Name%&lt;/b&gt;&lt;div style=&quot;font-size: 9px;&quot;&gt;[%c4Type%]&lt;/div&gt;&lt;br style=&quot;font-size: 9px;&quot;&gt;&lt;div style=&quot;font-size: 9px;&quot;&gt;%c4Description%&lt;/div&gt;" id="k0BlTFk7QvSlu4OEXwG6-5">
          <mxCell style="rounded=1;whiteSpace=wrap;html=1;labelBackgroundColor=none;fillColor=#999999;fontColor=#ffffff;align=center;arcSize=10;strokeColor=#8A8A8A;metaEdit=1;metaData={&quot;c4Type&quot;:{&quot;editable&quot;:false}};points=[[0.25,0,0],[0.5,0,0],[0.75,0,0],[1,0.25,0],[1,0.5,0],[1,0.75,0],[0.75,1,0],[0.5,1,0],[0.25,1,0],[0,0.75,0],[0,0.5,0],[0,0.25,0]];fontSize=9;" vertex="1" parent="rxWJiRZVJ9xuswOSfKd9-0">
            <mxGeometry x="203.5" y="42.5" width="90" height="65" as="geometry" />
          </mxCell>
        </object>
        <object placeholders="1" c4Name="name" c4Type="Component" c4Technology="technology" c4Description="Description" label="&lt;b style=&quot;font-size: 9px;&quot;&gt;%c4Name%&lt;/b&gt;&lt;div style=&quot;font-size: 9px;&quot;&gt;[%c4Type%: %c4Technology%]&lt;/div&gt;&lt;br style=&quot;font-size: 9px;&quot;&gt;&lt;div style=&quot;font-size: 9px;&quot;&gt;%c4Description%&lt;/div&gt;" id="k0BlTFk7QvSlu4OEXwG6-6">
          <mxCell style="rounded=1;whiteSpace=wrap;html=1;labelBackgroundColor=none;fillColor=#85BBF0;fontColor=#ffffff;align=center;arcSize=10;strokeColor=#78A8D8;metaEdit=1;metaData={&quot;c4Type&quot;:{&quot;editable&quot;:false}};points=[[0.25,0,0],[0.5,0,0],[0.75,0,0],[1,0.25,0],[1,0.5,0],[1,0.75,0],[0.75,1,0],[0.5,1,0],[0.25,1,0],[0,0.75,0],[0,0.5,0],[0,0.25,0]];fontSize=9;" vertex="1" parent="rxWJiRZVJ9xuswOSfKd9-0">
            <mxGeometry x="426" y="42.5" width="90" height="65" as="geometry" />
          </mxCell>
        </object>
        <object placeholders="1" c4Name="name" c4Type="Container" c4Technology="technology" c4Description="Description" label="&lt;b style=&quot;font-size: 9px;&quot;&gt;%c4Name%&lt;/b&gt;&lt;div style=&quot;font-size: 9px;&quot;&gt;[%c4Type%: %c4Technology%]&lt;/div&gt;&lt;br style=&quot;font-size: 9px;&quot;&gt;&lt;div style=&quot;font-size: 9px;&quot;&gt;%c4Description%&lt;/div&gt;" id="k0BlTFk7QvSlu4OEXwG6-7">
          <mxCell style="rounded=1;whiteSpace=wrap;html=1;labelBackgroundColor=none;fillColor=#438DD5;fontColor=#ffffff;align=center;arcSize=10;strokeColor=#3C7FC0;metaEdit=1;metaData={&quot;c4Type&quot;:{&quot;editable&quot;:false}};points=[[0.25,0,0],[0.5,0,0],[0.75,0,0],[1,0.25,0],[1,0.5,0],[1,0.75,0],[0.75,1,0],[0.5,1,0],[0.25,1,0],[0,0.75,0],[0,0.5,0],[0,0.25,0]];fontSize=9;" vertex="1" parent="rxWJiRZVJ9xuswOSfKd9-0">
            <mxGeometry x="314.5" y="42.5" width="90" height="65" as="geometry" />
          </mxCell>
        </object>
        <object placeholders="1" c4Name="name" c4Type="ExecutionEnvironment" c4Application="applicationAndVersion" label="&lt;div style=&quot;text-align: left; font-size: 9px;&quot;&gt;%c4Name%&lt;/div&gt;&lt;div style=&quot;text-align: left; font-size: 9px;&quot;&gt;[%c4Application%]&lt;/div&gt;" id="k0BlTFk7QvSlu4OEXwG6-8">
          <mxCell style="rounded=1;whiteSpace=wrap;html=1;labelBackgroundColor=none;fillColor=#ffffff;fontColor=#000000;align=left;arcSize=5;strokeColor=#000000;verticalAlign=bottom;metaEdit=1;metaData={&quot;c4Type&quot;:{&quot;editable&quot;:false}};points=[[0.25,0,0],[0.5,0,0],[0.75,0,0],[1,0.25,0],[1,0.5,0],[1,0.75,0],[0.75,1,0],[0.5,1,0],[0.25,1,0],[0,0.75,0],[0,0.5,0],[0,0.25,0]];fontSize=9;" vertex="1" parent="rxWJiRZVJ9xuswOSfKd9-0">
            <mxGeometry x="59" y="130" width="141" height="60" as="geometry" />
          </mxCell>
        </object>
        <object placeholders="1" c4Name="hostname" c4Type="DeploymentNode" c4OperationSystem="operationSystem" c4ScalingFactor="" label="&lt;div style=&quot;text-align: left; font-size: 9px;&quot;&gt;%c4Name%&lt;/div&gt;&lt;div style=&quot;text-align: left; font-size: 9px;&quot;&gt;[%c4OperationSystem%]&lt;/div&gt;&lt;div style=&quot;text-align: right; font-size: 9px;&quot;&gt;%c4ScalingFactor%&lt;/div&gt;" id="k0BlTFk7QvSlu4OEXwG6-9">
          <mxCell style="rounded=1;whiteSpace=wrap;html=1;labelBackgroundColor=none;fillColor=#ffffff;fontColor=#000000;align=left;arcSize=5;strokeColor=#000000;verticalAlign=bottom;metaEdit=1;metaData={&quot;c4Type&quot;:{&quot;editable&quot;:false}};points=[[0.25,0,0],[0.5,0,0],[0.75,0,0],[1,0.25,0],[1,0.5,0],[1,0.75,0],[0.75,1,0],[0.5,1,0],[0.25,1,0],[0,0.75,0],[0,0.5,0],[0,0.25,0]];fontSize=9;" vertex="1" parent="rxWJiRZVJ9xuswOSfKd9-0">
            <mxGeometry x="220" y="130" width="140" height="60" as="geometry" />
          </mxCell>
        </object>
        <object placeholders="1" c4Type="Database" c4Technology="Technology" c4Description="Description" label="%c4Type%&lt;div style=&quot;font-size: 9px;&quot;&gt;[Container:&amp;nbsp;%c4Technology%]&lt;/div&gt;&lt;br style=&quot;font-size: 9px;&quot;&gt;&lt;div style=&quot;font-size: 9px;&quot;&gt;%c4Description%&lt;/div&gt;" id="k0BlTFk7QvSlu4OEXwG6-10">
          <mxCell style="shape=cylinder;whiteSpace=wrap;html=1;boundedLbl=1;rounded=0;labelBackgroundColor=none;fillColor=#438DD5;fontSize=9;fontColor=#ffffff;align=center;strokeColor=#3C7FC0;metaEdit=1;points=[[0.5,0,0],[1,0.25,0],[1,0.5,0],[1,0.75,0],[0.5,1,0],[0,0.75,0],[0,0.5,0],[0,0.25,0]];metaData={&quot;c4Type&quot;:{&quot;editable&quot;:false}};" vertex="1" parent="rxWJiRZVJ9xuswOSfKd9-0">
            <mxGeometry x="380" y="130" width="90" height="70" as="geometry" />
          </mxCell>
        </object>
        <object placeholders="1" c4Type="Database" c4Technology="Technology" c4Description="External" label="%c4Type%&lt;div style=&quot;font-size: 9px;&quot;&gt;[Container:&amp;nbsp;%c4Technology%]&lt;/div&gt;&lt;br style=&quot;font-size: 9px;&quot;&gt;&lt;div style=&quot;font-size: 9px;&quot;&gt;%c4Description%&lt;/div&gt;" id="k0BlTFk7QvSlu4OEXwG6-11">
          <mxCell style="shape=cylinder;whiteSpace=wrap;html=1;boundedLbl=1;rounded=1;labelBackgroundColor=none;fillColor=#999999;fontSize=9;fontColor=#ffffff;align=center;strokeColor=#8A8A8A;metaEdit=1;points=[[0.5,0,0],[1,0.25,0],[1,0.5,0],[1,0.75,0],[0.5,1,0],[0,0.75,0],[0,0.5,0],[0,0.25,0]];metaData={&quot;c4Type&quot;:{&quot;editable&quot;:false}};arcSize=10;" vertex="1" parent="rxWJiRZVJ9xuswOSfKd9-0">
            <mxGeometry x="480" y="130" width="90" height="70" as="geometry" />
          </mxCell>
        </object>
        <object placeholders="1" c4Type="Relationship" c4Technology="technology" c4Description="Relationship" label="&lt;div style=&quot;text-align: left; font-size: 9px;&quot;&gt;&lt;div style=&quot;text-align: center; font-size: 9px;&quot;&gt;&lt;b style=&quot;font-size: 9px;&quot;&gt;%c4Description%&lt;/b&gt;&lt;/div&gt;&lt;div style=&quot;text-align: center; font-size: 9px;&quot;&gt;[%c4Technology%]&lt;/div&gt;&lt;/div&gt;" id="k0BlTFk7QvSlu4OEXwG6-12">
          <mxCell style="edgeStyle=none;rounded=0;html=1;jettySize=auto;orthogonalLoop=1;strokeColor=#707070;strokeWidth=2;fontColor=#707070;jumpStyle=none;dashed=1;metaEdit=1;metaData={&quot;c4Type&quot;:{&quot;editable&quot;:false}};fontSize=9;" edge="1" parent="rxWJiRZVJ9xuswOSfKd9-0">
            <mxGeometry width="160" relative="1" as="geometry">
              <mxPoint x="536" y="74.5" as="sourcePoint" />
              <mxPoint x="676" y="74.5" as="targetPoint" />
            </mxGeometry>
          </mxCell>
        </object>
        <object placeholders="1" c4Name="Sign-in controller" c4Type="Component" c4Technology="Keycloak" c4Description="Enforces access rights" label="&lt;b&gt;%c4Name%&lt;/b&gt;&lt;div&gt;[%c4Type%: %c4Technology%]&lt;/div&gt;&lt;br&gt;&lt;div&gt;%c4Description%&lt;/div&gt;" id="5MoVeIhPErhMrRM2h9Du-0">
          <mxCell style="rounded=1;whiteSpace=wrap;html=1;labelBackgroundColor=none;fillColor=#85BBF0;fontColor=#ffffff;align=center;arcSize=10;strokeColor=#78A8D8;metaEdit=1;metaData={&quot;c4Type&quot;:{&quot;editable&quot;:false}};points=[[0.25,0,0],[0.5,0,0],[0.75,0,0],[1,0.25,0],[1,0.5,0],[1,0.75,0],[0.75,1,0],[0.5,1,0],[0.25,1,0],[0,0.75,0],[0,0.5,0],[0,0.25,0]];" vertex="1" parent="AVTp8zRlv71y_wTY7c-L-1">
            <mxGeometry x="104" y="210" width="160" height="110.00000000000001" as="geometry" />
          </mxCell>
        </object>
        <object placeholders="1" c4Name="Web application" c4Type="Component" c4Technology="HTML5/JavaScript" c4Description="Status dashboard" label="&lt;b&gt;%c4Name%&lt;/b&gt;&lt;div&gt;[%c4Type%: %c4Technology%]&lt;/div&gt;&lt;br&gt;&lt;div&gt;%c4Description%&lt;/div&gt;" id="5MoVeIhPErhMrRM2h9Du-1">
          <mxCell style="rounded=1;whiteSpace=wrap;html=1;labelBackgroundColor=none;fillColor=#85BBF0;fontColor=#ffffff;align=center;arcSize=10;strokeColor=#78A8D8;metaEdit=1;metaData={&quot;c4Type&quot;:{&quot;editable&quot;:false}};points=[[0.25,0,0],[0.5,0,0],[0.75,0,0],[1,0.25,0],[1,0.5,0],[1,0.75,0],[0.75,1,0],[0.5,1,0],[0.25,1,0],[0,0.75,0],[0,0.5,0],[0,0.25,0]];" vertex="1" parent="AVTp8zRlv71y_wTY7c-L-1">
            <mxGeometry x="443" y="210" width="160" height="110.00000000000001" as="geometry" />
          </mxCell>
        </object>
        <object placeholders="1" c4Type="Relationship" c4Technology="HTTPS" c4Description="Sends requests" label="&lt;div style=&quot;text-align: left&quot;&gt;&lt;div style=&quot;text-align: center&quot;&gt;&lt;b&gt;%c4Description%&lt;/b&gt;&lt;/div&gt;&lt;div style=&quot;text-align: center&quot;&gt;[%c4Technology%]&lt;/div&gt;&lt;/div&gt;" id="5MoVeIhPErhMrRM2h9Du-2">
          <mxCell style="edgeStyle=none;rounded=0;html=1;jettySize=auto;orthogonalLoop=1;strokeColor=#707070;strokeWidth=2;fontColor=#707070;jumpStyle=none;dashed=1;metaEdit=1;metaData={&quot;c4Type&quot;:{&quot;editable&quot;:false}};" edge="1" parent="AVTp8zRlv71y_wTY7c-L-1" source="5MoVeIhPErhMrRM2h9Du-1" target="5MoVeIhPErhMrRM2h9Du-0">
            <mxGeometry width="160" relative="1" as="geometry">
              <mxPoint x="330" y="440" as="sourcePoint" />
              <mxPoint x="490" y="440" as="targetPoint" />
            </mxGeometry>
          </mxCell>
        </object>
        <object placeholders="1" c4Name="User Management" c4Type="Component" c4Technology="LDAP" c4Description="Creates users, assigns access rights" label="&lt;b&gt;%c4Name%&lt;/b&gt;&lt;div&gt;[%c4Type%: %c4Technology%]&lt;/div&gt;&lt;br&gt;&lt;div&gt;%c4Description%&lt;/div&gt;" id="5MoVeIhPErhMrRM2h9Du-3">
          <mxCell style="rounded=1;whiteSpace=wrap;html=1;labelBackgroundColor=none;fillColor=#85BBF0;fontColor=#ffffff;align=center;arcSize=10;strokeColor=#78A8D8;metaEdit=1;metaData={&quot;c4Type&quot;:{&quot;editable&quot;:false}};points=[[0.25,0,0],[0.5,0,0],[0.75,0,0],[1,0.25,0],[1,0.5,0],[1,0.75,0],[0.75,1,0],[0.5,1,0],[0.25,1,0],[0,0.75,0],[0,0.5,0],[0,0.25,0]];" vertex="1" parent="AVTp8zRlv71y_wTY7c-L-1">
            <mxGeometry x="104" y="380" width="160" height="110.00000000000001" as="geometry" />
          </mxCell>
        </object>
        <object placeholders="1" c4Type="Relationship" c4Technology="REST API" c4Description="Verifies access" label="&lt;div style=&quot;text-align: left&quot;&gt;&lt;div style=&quot;text-align: center&quot;&gt;&lt;b&gt;%c4Description%&lt;/b&gt;&lt;/div&gt;&lt;div style=&quot;text-align: center&quot;&gt;[%c4Technology%]&lt;/div&gt;&lt;/div&gt;" id="5MoVeIhPErhMrRM2h9Du-4">
          <mxCell style="edgeStyle=none;rounded=0;html=1;jettySize=auto;orthogonalLoop=1;strokeColor=#707070;strokeWidth=2;fontColor=#707070;jumpStyle=none;dashed=1;metaEdit=1;metaData={&quot;c4Type&quot;:{&quot;editable&quot;:false}};" edge="1" parent="AVTp8zRlv71y_wTY7c-L-1" source="5MoVeIhPErhMrRM2h9Du-0" target="5MoVeIhPErhMrRM2h9Du-3">
            <mxGeometry width="160" relative="1" as="geometry">
              <mxPoint x="330" y="490" as="sourcePoint" />
              <mxPoint x="490" y="490" as="targetPoint" />
            </mxGeometry>
          </mxCell>
        </object>
        <object placeholders="1" c4Type="Database" c4Technology="MySQL" c4Description="Dashboard access rights" label="%c4Type%&lt;div&gt;[Container:&amp;nbsp;%c4Technology%]&lt;/div&gt;&lt;br&gt;&lt;div&gt;%c4Description%&lt;/div&gt;" id="5MoVeIhPErhMrRM2h9Du-5">
          <mxCell style="shape=cylinder;whiteSpace=wrap;html=1;boundedLbl=1;rounded=0;labelBackgroundColor=none;fillColor=#438DD5;fontSize=12;fontColor=#ffffff;align=center;strokeColor=#3C7FC0;metaEdit=1;points=[[0.5,0,0],[1,0.25,0],[1,0.5,0],[1,0.75,0],[0.5,1,0],[0,0.75,0],[0,0.5,0],[0,0.25,0]];metaData={&quot;c4Type&quot;:{&quot;editable&quot;:false}};" vertex="1" parent="AVTp8zRlv71y_wTY7c-L-1">
            <mxGeometry x="104" y="550" width="160" height="140" as="geometry" />
          </mxCell>
        </object>
        <object placeholders="1" c4Type="Relationship" c4Technology="REST API" c4Description="Verifies, reads, writes" label="&lt;div style=&quot;text-align: left&quot;&gt;&lt;div style=&quot;text-align: center&quot;&gt;&lt;b&gt;%c4Description%&lt;/b&gt;&lt;/div&gt;&lt;div style=&quot;text-align: center&quot;&gt;[%c4Technology%]&lt;/div&gt;&lt;/div&gt;" id="5MoVeIhPErhMrRM2h9Du-6">
          <mxCell style="edgeStyle=none;rounded=0;html=1;jettySize=auto;orthogonalLoop=1;strokeColor=#707070;strokeWidth=2;fontColor=#707070;jumpStyle=none;dashed=1;metaEdit=1;metaData={&quot;c4Type&quot;:{&quot;editable&quot;:false}};" edge="1" parent="AVTp8zRlv71y_wTY7c-L-1" source="5MoVeIhPErhMrRM2h9Du-3" target="5MoVeIhPErhMrRM2h9Du-5">
            <mxGeometry width="160" relative="1" as="geometry">
              <mxPoint x="330" y="490" as="sourcePoint" />
              <mxPoint x="490" y="490" as="targetPoint" />
            </mxGeometry>
          </mxCell>
        </object>
        <object placeholders="1" c4Name="Dashboard Management" c4Type="Component" c4Technology="JSON" c4Description="Holds dashboard configuration" label="&lt;b&gt;%c4Name%&lt;/b&gt;&lt;div&gt;[%c4Type%: %c4Technology%]&lt;/div&gt;&lt;br&gt;&lt;div&gt;%c4Description%&lt;/div&gt;" id="5MoVeIhPErhMrRM2h9Du-7">
          <mxCell style="rounded=1;whiteSpace=wrap;html=1;labelBackgroundColor=none;fillColor=#85BBF0;fontColor=#ffffff;align=center;arcSize=10;strokeColor=#78A8D8;metaEdit=1;metaData={&quot;c4Type&quot;:{&quot;editable&quot;:false}};points=[[0.25,0,0],[0.5,0,0],[0.75,0,0],[1,0.25,0],[1,0.5,0],[1,0.75,0],[0.75,1,0],[0.5,1,0],[0.25,1,0],[0,0.75,0],[0,0.5,0],[0,0.25,0]];" vertex="1" parent="AVTp8zRlv71y_wTY7c-L-1">
            <mxGeometry x="294" y="450" width="160" height="110.00000000000001" as="geometry" />
          </mxCell>
        </object>
        <object placeholders="1" c4Type="Relationship" c4Technology="HTML" c4Description="Set up dashboards" label="&lt;div style=&quot;text-align: left&quot;&gt;&lt;div style=&quot;text-align: center&quot;&gt;&lt;b&gt;%c4Description%&lt;/b&gt;&lt;/div&gt;&lt;div style=&quot;text-align: center&quot;&gt;[%c4Technology%]&lt;/div&gt;&lt;/div&gt;" id="5MoVeIhPErhMrRM2h9Du-8">
          <mxCell style="edgeStyle=none;rounded=0;html=1;jettySize=auto;orthogonalLoop=1;strokeColor=#707070;strokeWidth=2;fontColor=#707070;jumpStyle=none;dashed=1;metaEdit=1;metaData={&quot;c4Type&quot;:{&quot;editable&quot;:false}};" edge="1" parent="AVTp8zRlv71y_wTY7c-L-1" source="5MoVeIhPErhMrRM2h9Du-1" target="5MoVeIhPErhMrRM2h9Du-7">
            <mxGeometry width="160" relative="1" as="geometry">
              <mxPoint x="330" y="490" as="sourcePoint" />
              <mxPoint x="490" y="490" as="targetPoint" />
            </mxGeometry>
          </mxCell>
        </object>
        <object placeholders="1" c4Name="Visualisation Dashboard" c4Type="Container" c4Technology="Graphics libraries" c4Description="" label="&lt;b&gt;%c4Name%&lt;/b&gt;&lt;div&gt;[%c4Type%: %c4Technology%]&lt;/div&gt;&lt;br&gt;&lt;div&gt;%c4Description%&lt;/div&gt;" id="5MoVeIhPErhMrRM2h9Du-10">
          <mxCell style="rounded=1;whiteSpace=wrap;html=1;labelBackgroundColor=none;fillColor=#438DD5;fontColor=#ffffff;align=center;arcSize=10;strokeColor=#3C7FC0;metaEdit=1;metaData={&quot;c4Type&quot;:{&quot;editable&quot;:false}};points=[[0.25,0,0],[0.5,0,0],[0.75,0,0],[1,0.25,0],[1,0.5,0],[1,0.75,0],[0.75,1,0],[0.5,1,0],[0.25,1,0],[0,0.75,0],[0,0.5,0],[0,0.25,0]];" vertex="1" parent="AVTp8zRlv71y_wTY7c-L-1">
            <mxGeometry x="294" y="760" width="160" height="110.00000000000001" as="geometry" />
          </mxCell>
        </object>
        <object placeholders="1" c4Type="Relationship" c4Technology="JSON" c4Description="Makes requests to" label="&lt;div style=&quot;text-align: left&quot;&gt;&lt;div style=&quot;text-align: center&quot;&gt;&lt;b&gt;%c4Description%&lt;/b&gt;&lt;/div&gt;&lt;div style=&quot;text-align: center&quot;&gt;[%c4Technology%]&lt;/div&gt;&lt;/div&gt;" id="5MoVeIhPErhMrRM2h9Du-11">
          <mxCell style="edgeStyle=none;rounded=0;html=1;jettySize=auto;orthogonalLoop=1;strokeColor=#707070;strokeWidth=2;fontColor=#707070;jumpStyle=none;dashed=1;metaEdit=1;metaData={&quot;c4Type&quot;:{&quot;editable&quot;:false}};" edge="1" parent="AVTp8zRlv71y_wTY7c-L-1" source="5MoVeIhPErhMrRM2h9Du-7" target="5MoVeIhPErhMrRM2h9Du-10">
            <mxGeometry width="160" relative="1" as="geometry">
              <mxPoint x="330" y="830" as="sourcePoint" />
              <mxPoint x="490" y="830" as="targetPoint" />
            </mxGeometry>
          </mxCell>
        </object>
        <object placeholders="1" c4Type="Relationship" c4Technology="HTTPS" c4Description="Authenticates" label="&lt;div style=&quot;text-align: left&quot;&gt;&lt;div style=&quot;text-align: center&quot;&gt;&lt;b&gt;%c4Description%&lt;/b&gt;&lt;/div&gt;&lt;div style=&quot;text-align: center&quot;&gt;[%c4Technology%]&lt;/div&gt;&lt;/div&gt;" id="5MoVeIhPErhMrRM2h9Du-12">
          <mxCell style="edgeStyle=none;rounded=0;html=1;jettySize=auto;orthogonalLoop=1;strokeColor=#707070;strokeWidth=2;fontColor=#707070;jumpStyle=none;dashed=1;metaEdit=1;metaData={&quot;c4Type&quot;:{&quot;editable&quot;:false}};" edge="1" parent="AVTp8zRlv71y_wTY7c-L-1" source="5MoVeIhPErhMrRM2h9Du-5" target="5MoVeIhPErhMrRM2h9Du-10">
            <mxGeometry width="160" relative="1" as="geometry">
              <mxPoint x="330" y="830" as="sourcePoint" />
              <mxPoint x="490" y="830" as="targetPoint" />
            </mxGeometry>
          </mxCell>
        </object>
        <object placeholders="1" c4Name="Data Source Management" c4Type="Component" c4Technology="XML" c4Description="Stores connection parameters" label="&lt;b&gt;%c4Name%&lt;/b&gt;&lt;div&gt;[%c4Type%: %c4Technology%]&lt;/div&gt;&lt;br&gt;&lt;div&gt;%c4Description%&lt;/div&gt;" link="data:page/id,S9xD85C3ral9A_xj9ERV" id="5MoVeIhPErhMrRM2h9Du-13">
          <mxCell style="rounded=1;whiteSpace=wrap;html=1;labelBackgroundColor=none;fillColor=#85BBF0;fontColor=#ffffff;align=center;arcSize=10;strokeColor=#78A8D8;metaEdit=1;metaData={&quot;c4Type&quot;:{&quot;editable&quot;:false}};points=[[0.25,0,0],[0.5,0,0],[0.75,0,0],[1,0.25,0],[1,0.5,0],[1,0.75,0],[0.75,1,0],[0.5,1,0],[0.25,1,0],[0,0.75,0],[0,0.5,0],[0,0.25,0]];" vertex="1" parent="AVTp8zRlv71y_wTY7c-L-1">
            <mxGeometry x="534" y="450" width="160" height="110.00000000000001" as="geometry" />
          </mxCell>
        </object>
        <object placeholders="1" c4Type="Relationship" c4Technology="HTML" c4Description="Set up parameters" label="&lt;div style=&quot;text-align: left&quot;&gt;&lt;div style=&quot;text-align: center&quot;&gt;&lt;b&gt;%c4Description%&lt;/b&gt;&lt;/div&gt;&lt;div style=&quot;text-align: center&quot;&gt;[%c4Technology%]&lt;/div&gt;&lt;/div&gt;" id="5MoVeIhPErhMrRM2h9Du-14">
          <mxCell style="edgeStyle=none;rounded=0;html=1;jettySize=auto;orthogonalLoop=1;strokeColor=#707070;strokeWidth=2;fontColor=#707070;jumpStyle=none;dashed=1;metaEdit=1;metaData={&quot;c4Type&quot;:{&quot;editable&quot;:false}};" edge="1" parent="AVTp8zRlv71y_wTY7c-L-1" source="5MoVeIhPErhMrRM2h9Du-1" target="5MoVeIhPErhMrRM2h9Du-13">
            <mxGeometry width="160" relative="1" as="geometry">
              <mxPoint x="330" y="610" as="sourcePoint" />
              <mxPoint x="490" y="610" as="targetPoint" />
            </mxGeometry>
          </mxCell>
        </object>
        <object placeholders="1" c4Name="API Servive" c4Type="Container" c4Technology="Java/Python" c4Description="" label="&lt;b&gt;%c4Name%&lt;/b&gt;&lt;div&gt;[%c4Type%: %c4Technology%]&lt;/div&gt;&lt;br&gt;&lt;div&gt;%c4Description%&lt;/div&gt;" id="5MoVeIhPErhMrRM2h9Du-16">
          <mxCell style="rounded=1;whiteSpace=wrap;html=1;labelBackgroundColor=none;fillColor=#438DD5;fontColor=#ffffff;align=center;arcSize=10;strokeColor=#3C7FC0;metaEdit=1;metaData={&quot;c4Type&quot;:{&quot;editable&quot;:false}};points=[[0.25,0,0],[0.5,0,0],[0.75,0,0],[1,0.25,0],[1,0.5,0],[1,0.75,0],[0.75,1,0],[0.5,1,0],[0.25,1,0],[0,0.75,0],[0,0.5,0],[0,0.25,0]];" vertex="1" parent="AVTp8zRlv71y_wTY7c-L-1">
            <mxGeometry x="534" y="760" width="160" height="110.00000000000001" as="geometry" />
          </mxCell>
        </object>
        <object placeholders="1" c4Type="Relationship" c4Technology="JSON" c4Description="Makes requests to" label="&lt;div style=&quot;text-align: left&quot;&gt;&lt;div style=&quot;text-align: center&quot;&gt;&lt;b&gt;%c4Description%&lt;/b&gt;&lt;/div&gt;&lt;div style=&quot;text-align: center&quot;&gt;[%c4Technology%]&lt;/div&gt;&lt;/div&gt;" id="5MoVeIhPErhMrRM2h9Du-17">
          <mxCell style="edgeStyle=none;rounded=0;html=1;jettySize=auto;orthogonalLoop=1;strokeColor=#707070;strokeWidth=2;fontColor=#707070;jumpStyle=none;dashed=1;metaEdit=1;metaData={&quot;c4Type&quot;:{&quot;editable&quot;:false}};" edge="1" parent="AVTp8zRlv71y_wTY7c-L-1" source="5MoVeIhPErhMrRM2h9Du-13" target="5MoVeIhPErhMrRM2h9Du-16">
            <mxGeometry width="160" relative="1" as="geometry">
              <mxPoint x="384" y="570" as="sourcePoint" />
              <mxPoint x="384" y="770" as="targetPoint" />
            </mxGeometry>
          </mxCell>
        </object>
        <object placeholders="1" c4Type="Relationship" c4Technology="JSON" c4Description="Sends data to" label="&lt;div style=&quot;text-align: left&quot;&gt;&lt;div style=&quot;text-align: center&quot;&gt;&lt;b&gt;%c4Description%&lt;/b&gt;&lt;/div&gt;&lt;div style=&quot;text-align: center&quot;&gt;[%c4Technology%]&lt;/div&gt;&lt;/div&gt;" id="5MoVeIhPErhMrRM2h9Du-18">
          <mxCell style="edgeStyle=none;rounded=0;html=1;jettySize=auto;orthogonalLoop=1;strokeColor=#707070;strokeWidth=2;fontColor=#707070;jumpStyle=none;dashed=1;metaEdit=1;metaData={&quot;c4Type&quot;:{&quot;editable&quot;:false}};" edge="1" parent="AVTp8zRlv71y_wTY7c-L-1" source="5MoVeIhPErhMrRM2h9Du-16" target="5MoVeIhPErhMrRM2h9Du-10">
            <mxGeometry width="160" relative="1" as="geometry">
              <mxPoint x="330" y="610" as="sourcePoint" />
              <mxPoint x="490" y="610" as="targetPoint" />
              <Array as="points" />
            </mxGeometry>
          </mxCell>
        </object>
        <object placeholders="1" c4Type="Relationship" c4Technology="HTML" c4Description="Sends data to" label="&lt;div style=&quot;text-align: left&quot;&gt;&lt;div style=&quot;text-align: center&quot;&gt;&lt;b&gt;%c4Description%&lt;/b&gt;&lt;/div&gt;&lt;div style=&quot;text-align: center&quot;&gt;[%c4Technology%]&lt;/div&gt;&lt;/div&gt;" id="5MoVeIhPErhMrRM2h9Du-19">
          <mxCell style="edgeStyle=none;rounded=0;html=1;jettySize=auto;orthogonalLoop=1;strokeColor=#707070;strokeWidth=2;fontColor=#707070;jumpStyle=none;dashed=1;metaEdit=1;metaData={&quot;c4Type&quot;:{&quot;editable&quot;:false}};" edge="1" parent="AVTp8zRlv71y_wTY7c-L-1" source="5MoVeIhPErhMrRM2h9Du-10" target="5MoVeIhPErhMrRM2h9Du-1">
            <mxGeometry width="160" relative="1" as="geometry">
              <mxPoint x="330" y="610" as="sourcePoint" />
              <mxPoint x="490" y="610" as="targetPoint" />
              <Array as="points">
                <mxPoint x="374" y="890" />
                <mxPoint x="790" y="890" />
                <mxPoint x="790" y="550" />
                <mxPoint x="790" y="265" />
              </Array>
            </mxGeometry>
          </mxCell>
        </object>
      </root>
    </mxGraphModel>
  </diagram>
  <diagram id="S9xD85C3ral9A_xj9ERV" name="C4 Class">
    <mxGraphModel dx="1131" dy="761" grid="1" gridSize="10" guides="1" tooltips="1" connect="1" arrows="1" fold="1" page="1" pageScale="1" pageWidth="827" pageHeight="1169" math="0" shadow="0">
      <root>
        <mxCell id="Nq8w9iYGLx4AlKzzBWPV-0" />
        <mxCell id="Nq8w9iYGLx4AlKzzBWPV-1" parent="Nq8w9iYGLx4AlKzzBWPV-0" />
        <mxCell id="TtzTTNUKWyMLVY1T3vZk-36" value="1...*" style="endArrow=none;html=1;endSize=12;startArrow=diamondThin;startSize=14;startFill=1;edgeStyle=orthogonalEdgeStyle;align=left;verticalAlign=bottom;endFill=0;" parent="Nq8w9iYGLx4AlKzzBWPV-1" source="TtzTTNUKWyMLVY1T3vZk-10" target="3qMrUAQamapioXkadR3u-12" edge="1">
          <mxGeometry x="0.8077" y="-9" relative="1" as="geometry">
            <mxPoint x="240" y="-40" as="sourcePoint" />
            <mxPoint x="400" y="-40" as="targetPoint" />
            <mxPoint as="offset" />
          </mxGeometry>
        </mxCell>
        <mxCell id="TtzTTNUKWyMLVY1T3vZk-40" style="edgeStyle=orthogonalEdgeStyle;rounded=0;orthogonalLoop=1;jettySize=auto;html=1;endArrow=none;endFill=0;" parent="Nq8w9iYGLx4AlKzzBWPV-1" source="eIYq_CpWJzX__o5Ln69q-11" target="OGqcthoKlDPa5uDeEdXH-2" edge="1">
          <mxGeometry relative="1" as="geometry">
            <Array as="points">
              <mxPoint x="590" y="257" />
              <mxPoint x="590" y="257" />
            </Array>
          </mxGeometry>
        </mxCell>
        <mxCell id="TtzTTNUKWyMLVY1T3vZk-37" value="1...*" style="endArrow=none;html=1;endSize=12;startArrow=diamondThin;startSize=14;startFill=0;edgeStyle=orthogonalEdgeStyle;align=left;verticalAlign=bottom;endFill=0;" parent="Nq8w9iYGLx4AlKzzBWPV-1" source="TtzTTNUKWyMLVY1T3vZk-16" target="TtzTTNUKWyMLVY1T3vZk-21" edge="1">
          <mxGeometry x="0.8718" y="-7" relative="1" as="geometry">
            <mxPoint x="50" y="270" as="sourcePoint" />
            <mxPoint x="210" y="270" as="targetPoint" />
            <Array as="points">
              <mxPoint x="220" y="105" />
              <mxPoint x="220" y="157" />
            </Array>
            <mxPoint as="offset" />
          </mxGeometry>
        </mxCell>
        <mxCell id="TtzTTNUKWyMLVY1T3vZk-39" value="" style="endArrow=block;dashed=1;endFill=0;endSize=12;html=1;" parent="Nq8w9iYGLx4AlKzzBWPV-1" source="TtzTTNUKWyMLVY1T3vZk-5" target="eIYq_CpWJzX__o5Ln69q-11" edge="1">
          <mxGeometry width="160" relative="1" as="geometry">
            <mxPoint x="510" y="-20" as="sourcePoint" />
            <mxPoint x="670" y="-20" as="targetPoint" />
          </mxGeometry>
        </mxCell>
        <mxCell id="ZkiADhJPP-X4hf17RpCL-0" value="&lt;b&gt;Data Source Management&lt;/b&gt;&amp;nbsp;&lt;br&gt;(UML Class)" style="text;html=1;align=left;verticalAlign=middle;resizable=0;points=[];autosize=1;fontStyle=1;fontColor=#666666;" parent="Nq8w9iYGLx4AlKzzBWPV-1" vertex="1">
          <mxGeometry x="20" y="350" width="170" height="30" as="geometry" />
        </mxCell>
        <mxCell id="3qMrUAQamapioXkadR3u-12" value="DataSource" style="swimlane;fontStyle=1;align=center;verticalAlign=top;childLayout=stackLayout;horizontal=1;startSize=30;horizontalStack=0;resizeParent=1;resizeParentMax=0;resizeLast=0;collapsible=1;marginBottom=0;" parent="Nq8w9iYGLx4AlKzzBWPV-1" vertex="1">
          <mxGeometry x="20" y="60" width="150" height="38" as="geometry" />
        </mxCell>
        <mxCell id="3qMrUAQamapioXkadR3u-14" value="" style="line;strokeWidth=1;fillColor=none;align=left;verticalAlign=middle;spacingTop=-1;spacingLeft=3;spacingRight=3;rotatable=0;labelPosition=right;points=[];portConstraint=eastwest;" parent="3qMrUAQamapioXkadR3u-12" vertex="1">
          <mxGeometry y="30" width="150" height="8" as="geometry" />
        </mxCell>
        <mxCell id="TtzTTNUKWyMLVY1T3vZk-21" value="Database" style="swimlane;fontStyle=1;align=center;verticalAlign=top;childLayout=stackLayout;horizontal=1;startSize=26;horizontalStack=0;resizeParent=1;resizeParentMax=0;resizeLast=0;collapsible=1;marginBottom=0;" parent="Nq8w9iYGLx4AlKzzBWPV-1" vertex="1">
          <mxGeometry x="20" y="140" width="150" height="34" as="geometry" />
        </mxCell>
        <mxCell id="TtzTTNUKWyMLVY1T3vZk-23" value="" style="line;strokeWidth=1;fillColor=none;align=left;verticalAlign=middle;spacingTop=-1;spacingLeft=3;spacingRight=3;rotatable=0;labelPosition=right;points=[];portConstraint=eastwest;" parent="TtzTTNUKWyMLVY1T3vZk-21" vertex="1">
          <mxGeometry y="26" width="150" height="8" as="geometry" />
        </mxCell>
        <mxCell id="eIYq_CpWJzX__o5Ln69q-11" value="DataSourceManagement" style="swimlane;fontStyle=1;align=center;verticalAlign=top;childLayout=stackLayout;horizontal=1;startSize=26;horizontalStack=0;resizeParent=1;resizeParentMax=0;resizeLast=0;collapsible=1;marginBottom=0;" parent="Nq8w9iYGLx4AlKzzBWPV-1" vertex="1">
          <mxGeometry x="284" y="40" width="280" height="268" as="geometry" />
        </mxCell>
        <mxCell id="TtzTTNUKWyMLVY1T3vZk-10" value="+ Sources: DataSources[]" style="text;strokeColor=none;fillColor=none;align=left;verticalAlign=top;spacingLeft=4;spacingRight=4;overflow=hidden;rotatable=0;points=[[0,0.5],[1,0.5]];portConstraint=eastwest;" parent="eIYq_CpWJzX__o5Ln69q-11" vertex="1">
          <mxGeometry y="26" width="280" height="26" as="geometry" />
        </mxCell>
        <mxCell id="TtzTTNUKWyMLVY1T3vZk-16" value="+ Databases: Database[]" style="text;strokeColor=none;fillColor=none;align=left;verticalAlign=top;spacingLeft=4;spacingRight=4;overflow=hidden;rotatable=0;points=[[0,0.5],[1,0.5]];portConstraint=eastwest;" parent="eIYq_CpWJzX__o5Ln69q-11" vertex="1">
          <mxGeometry y="52" width="280" height="26" as="geometry" />
        </mxCell>
        <mxCell id="eIYq_CpWJzX__o5Ln69q-13" value="" style="line;strokeWidth=1;fillColor=none;align=left;verticalAlign=middle;spacingTop=-1;spacingLeft=3;spacingRight=3;rotatable=0;labelPosition=right;points=[];portConstraint=eastwest;" parent="eIYq_CpWJzX__o5Ln69q-11" vertex="1">
          <mxGeometry y="78" width="280" height="8" as="geometry" />
        </mxCell>
        <mxCell id="TtzTTNUKWyMLVY1T3vZk-14" value="+ get(DataSource,InterfaceAPI): DataSource" style="text;strokeColor=none;fillColor=none;align=left;verticalAlign=top;spacingLeft=4;spacingRight=4;overflow=hidden;rotatable=0;points=[[0,0.5],[1,0.5]];portConstraint=eastwest;" parent="eIYq_CpWJzX__o5Ln69q-11" vertex="1">
          <mxGeometry y="86" width="280" height="26" as="geometry" />
        </mxCell>
        <mxCell id="TtzTTNUKWyMLVY1T3vZk-26" value="+ new(string): DataSource" style="text;strokeColor=none;fillColor=none;align=left;verticalAlign=top;spacingLeft=4;spacingRight=4;overflow=hidden;rotatable=0;points=[[0,0.5],[1,0.5]];portConstraint=eastwest;" parent="eIYq_CpWJzX__o5Ln69q-11" vertex="1">
          <mxGeometry y="112" width="280" height="26" as="geometry" />
        </mxCell>
        <mxCell id="TtzTTNUKWyMLVY1T3vZk-34" value="+ add(DataSource,InterfaceAPI): bool" style="text;strokeColor=none;fillColor=none;align=left;verticalAlign=top;spacingLeft=4;spacingRight=4;overflow=hidden;rotatable=0;points=[[0,0.5],[1,0.5]];portConstraint=eastwest;" parent="eIYq_CpWJzX__o5Ln69q-11" vertex="1">
          <mxGeometry y="138" width="280" height="26" as="geometry" />
        </mxCell>
        <mxCell id="TtzTTNUKWyMLVY1T3vZk-27" value="+ list(DataSource[]): bool" style="text;strokeColor=none;fillColor=none;align=left;verticalAlign=top;spacingLeft=4;spacingRight=4;overflow=hidden;rotatable=0;points=[[0,0.5],[1,0.5]];portConstraint=eastwest;" parent="eIYq_CpWJzX__o5Ln69q-11" vertex="1">
          <mxGeometry y="164" width="280" height="26" as="geometry" />
        </mxCell>
        <mxCell id="TtzTTNUKWyMLVY1T3vZk-28" value="+ delete(DataSource,InterfaceAPI): bool" style="text;strokeColor=none;fillColor=none;align=left;verticalAlign=top;spacingLeft=4;spacingRight=4;overflow=hidden;rotatable=0;points=[[0,0.5],[1,0.5]];portConstraint=eastwest;" parent="eIYq_CpWJzX__o5Ln69q-11" vertex="1">
          <mxGeometry y="190" width="280" height="26" as="geometry" />
        </mxCell>
        <mxCell id="TtzTTNUKWyMLVY1T3vZk-29" value="+ update(DataSource,InterfaceAPI): bool" style="text;strokeColor=none;fillColor=none;align=left;verticalAlign=top;spacingLeft=4;spacingRight=4;overflow=hidden;rotatable=0;points=[[0,0.5],[1,0.5]];portConstraint=eastwest;" parent="eIYq_CpWJzX__o5Ln69q-11" vertex="1">
          <mxGeometry y="216" width="280" height="26" as="geometry" />
        </mxCell>
        <mxCell id="TtzTTNUKWyMLVY1T3vZk-30" value="+ test(DataSource,InterfaceAPI): bool" style="text;strokeColor=none;fillColor=none;align=left;verticalAlign=top;spacingLeft=4;spacingRight=4;overflow=hidden;rotatable=0;points=[[0,0.5],[1,0.5]];portConstraint=eastwest;" parent="eIYq_CpWJzX__o5Ln69q-11" vertex="1">
          <mxGeometry y="242" width="280" height="26" as="geometry" />
        </mxCell>
        <mxCell id="OGqcthoKlDPa5uDeEdXH-2" value="Exception" style="swimlane;fontStyle=1;align=center;verticalAlign=top;childLayout=stackLayout;horizontal=1;startSize=26;horizontalStack=0;resizeParent=1;resizeParentMax=0;resizeLast=0;collapsible=1;marginBottom=0;" parent="Nq8w9iYGLx4AlKzzBWPV-1" vertex="1">
          <mxGeometry x="650" y="240" width="150" height="34" as="geometry" />
        </mxCell>
        <mxCell id="OGqcthoKlDPa5uDeEdXH-4" value="" style="line;strokeWidth=1;fillColor=none;align=left;verticalAlign=middle;spacingTop=-1;spacingLeft=3;spacingRight=3;rotatable=0;labelPosition=right;points=[];portConstraint=eastwest;" parent="OGqcthoKlDPa5uDeEdXH-2" vertex="1">
          <mxGeometry y="26" width="150" height="8" as="geometry" />
        </mxCell>
        <mxCell id="TtzTTNUKWyMLVY1T3vZk-5" value="InterfaceAPI" style="swimlane;fontStyle=1;align=center;verticalAlign=top;childLayout=stackLayout;horizontal=1;startSize=26;horizontalStack=0;resizeParent=1;resizeParentMax=0;resizeLast=0;collapsible=1;marginBottom=0;" parent="Nq8w9iYGLx4AlKzzBWPV-1" vertex="1">
          <mxGeometry x="650" y="157" width="150" height="34" as="geometry" />
        </mxCell>
        <mxCell id="TtzTTNUKWyMLVY1T3vZk-7" value="" style="line;strokeWidth=1;fillColor=none;align=left;verticalAlign=middle;spacingTop=-1;spacingLeft=3;spacingRight=3;rotatable=0;labelPosition=right;points=[];portConstraint=eastwest;" parent="TtzTTNUKWyMLVY1T3vZk-5" vertex="1">
          <mxGeometry y="26" width="150" height="8" as="geometry" />
        </mxCell>
      </root>
    </mxGraphModel>
  </diagram>
</mxfile>
